<svg width="177" height="168" viewBox="0 0 177 168" fill="none" xmlns="http://www.w3.org/2000/svg">
<path d="M68.25 1.30501C71 0.869012 73.925 0.417014 74.75 0.301014C75.575 0.185514 80.975 0.15451 86.75 0.23251C95.1655 0.34551 98.339 0.59251 102.735 1.47601C105.752 2.08251 110.547 3.35701 113.391 4.30851C116.236 5.26051 120.431 6.92651 122.714 8.01151C124.998 9.09651 128.932 11.3405 131.458 12.999C133.983 14.657 138.085 17.9765 140.573 20.375C143.061 22.774 146.2 26.202 147.548 27.9935C148.896 29.7845 150.906 32.9845 152.014 35.105C153.123 37.225 154.585 40.4365 155.265 42.241L157 47.5L158.5 55.5H119.5C119.5 55.5 117.607 48.976 115.926 46.648C114.246 44.32 111.381 41.1805 109.561 39.6715C107.74 38.162 104.45 36.053 102.25 34.9845C100.05 33.916 96.7875 32.6965 95 32.275C93.2125 31.854 89.6125 31.365 87 31.189C84.201 31.001 80.402 31.114 77.75 31.465C75.275 31.7925 71.225 32.735 68.75 33.56C66.275 34.3845 62.5625 36.1095 60.5 37.393C58.4375 38.6765 55.1455 41.307 53.1845 43.2385C51.224 45.1695 48.252 48.866 46.5815 51.452C44.9105 54.0385 42.754 58.126 41.7895 60.536C40.825 62.946 39.538 67.2425 38.929 70.084C38.013 74.3605 37.8225 76.843 37.8225 84.5C37.8225 92.1675 38.0125 94.6375 38.9335 98.937C39.5445 101.79 40.8145 106.035 41.756 108.369C42.6975 110.704 44.5365 114.333 45.8425 116.432C47.149 118.532 50.025 122.063 52.234 124.279C54.4425 126.494 57.58 129.174 59.206 130.234C60.8315 131.294 63.9815 132.929 66.206 133.867C68.43 134.806 72.05 136.014 74.25 136.552C76.45 137.09 80.95 137.662 84.25 137.823C87.748 137.993 91.9055 137.879 94.2195 137.549C96.403 137.238 100.062 136.339 102.35 135.55C104.639 134.761 107.795 133.358 109.363 132.433C110.931 131.507 114.04 128.95 116.271 126.75C118.502 124.55 121.191 121.311 122.245 119.553C123.525 117.415 124.939 114.617 125.094 113L126 107.5H97.5V79.5H176.5V107.5H165C164.452 110.094 163.662 112.632 162.641 115.078L161.464 117.9C161.464 117.9 158.898 124.825 157.721 127.361C156.544 129.897 154.362 133.843 152.872 136.129C151.381 138.416 148.781 141.89 147.095 143.85C145.409 145.809 142.391 148.751 140.389 150.386C138.387 152.021 134.958 154.528 132.768 155.957C130.577 157.387 127.138 159.339 125.123 160.295C123.108 161.251 119.391 162.726 116.861 163.573C114.332 164.421 109.785 165.675 106.757 166.361C101.842 167.474 99.7915 167.635 87.6845 167.856C76.492 168.06 73.174 167.956 68.716 167.256C65.744 166.79 61.161 165.783 58.5315 165.017C55.9015 164.251 51.993 162.918 49.8455 162.056C47.6975 161.193 44.7725 159.9 43.3455 159.182C41.918 158.464 38.95 156.708 36.75 155.279C34.55 153.85 31.0625 151.285 29 149.578C26.9375 147.872 23.604 144.625 21.5925 142.363C19.5805 140.101 16.4895 136.095 14.7235 133.462C12.957 130.828 10.4095 126.328 9.06199 123.462C7.71449 120.595 5.8935 116 5.0155 113.25C4.1375 110.5 3 106.225 2.488 103.75C1.9755 101.275 1.30249 96.8945 0.990994 94.0155C0.679994 91.1365 0.434496 86.4115 0.444996 83.5155C0.455496 80.6195 0.809499 75.631 1.232 72.43C1.654 69.2295 2.547 64.503 3.2165 61.928C3.8855 59.3525 5.0365 55.559 5.7735 53.4975C6.511 51.4365 8.4495 47.119 10.082 43.904C11.7145 40.6885 14.445 36.076 16.15 33.654C17.855 31.2315 21.8375 26.65 25 23.4725C29.0805 19.372 32.4245 16.5825 36.5165 13.864C39.6885 11.757 44.4545 9.01852 47.108 7.77852C49.7615 6.53852 54.479 4.75301 57.5915 3.81101C60.7035 2.86951 65.5 1.74151 68.25 1.30501Z" fill="white"/>
</svg>
