<svg width="667" height="165" viewBox="0 0 667 165" fill="none" xmlns="http://www.w3.org/2000/svg">
<path fill-rule="evenodd" clip-rule="evenodd" d="M0.5 0.500015V162.5H84.5V129.5H38.5V0.500015H0.5ZM96.5 0.5V162.5H134.5V0.5H96.5ZM148.5 0.5V162.5H186.5V58.5L244.5 162.5H283.5V0.5H246.5V105L188.247 0.5H148.5ZM371.5 0.5V114C371.5 114 371.677 114.33 370.807 117.25C370.315 118.9 369.23 121.538 368.394 123.112C367.558 124.686 365.666 127.117 364.189 128.514C362.711 129.911 360.321 131.593 358.876 132.252C357.432 132.91 354.781 133.682 352.986 133.967C350.857 134.304 348.714 134.32 346.825 134.013C345.232 133.753 342.715 132.985 341.23 132.306C339.746 131.626 337.364 129.986 335.937 128.66C334.51 127.335 332.695 125.238 331.904 124.001C331.113 122.763 329.802 119.613 328.99 117.001C328.179 114.388 328 110.191 328 110.191V106.5H291L292 115C292 115 292.832 120.861 293.685 124.182C294.453 127.17 295.817 131.36 296.717 133.493C297.617 135.626 299.589 139.268 301.1 141.586C302.611 143.904 305.23 147.278 306.92 149.085C308.611 150.892 311.687 153.541 313.757 154.972C315.827 156.403 319.445 158.463 321.797 159.55C324.149 160.636 327.915 162.059 330.165 162.711C332.415 163.363 336.468 164.175 339.171 164.515C342.34 164.914 347.131 165.034 352.667 164.851C358.577 164.656 362.807 164.237 366.25 163.504C369 162.919 373.449 161.561 376.137 160.486C378.825 159.411 382.65 157.481 384.637 156.197C386.624 154.913 390.013 152.15 392.167 150.056C394.322 147.963 397.081 144.753 398.298 142.924C399.515 141.094 401.099 138.282 401.818 136.674C402.536 135.066 403.755 131.898 404.527 129.634C405.299 127.371 406.34 123.658 406.84 121.384C408.275 114.865 408.501 108.185 408.483 101.509C408.396 69.4182 408 0.5 408 0.5H371.5ZM421.5 0.5V162.711H520.5V132.5H459.5V96.5H520.5V67.5H459.5V30.5H520.5V0.5H421.5ZM531.5 0.5V162.711H569.5V59L627.5 162.5L666.5 162.711V0.5H629.5V106L570.471 0.5H531.5Z" fill="white"/>
</svg>
