<svg width="126" height="161" viewBox="0 0 126 161" fill="none" xmlns="http://www.w3.org/2000/svg">
<path fill-rule="evenodd" clip-rule="evenodd" d="M0 0.179652V161H36L36.5 116.718H54.5L83 161H126L94 110C94 110 99.9485 106.49 102.7 104.295C105.203 102.299 108.688 99.1231 110.446 97.2381C112.204 95.3536 114.647 92.2581 115.875 90.3596C117.103 88.4611 118.967 85.0726 120.018 82.8291C121.069 80.5856 122.399 77.0626 122.975 75.0001C123.55 72.9376 124.353 69.2251 124.758 66.7501C125.164 64.2751 125.496 60.3376 125.496 58.0001C125.496 55.6626 125.164 51.7251 124.758 49.2501C124.353 46.7751 123.55 43.0626 122.975 41.0001C122.399 38.9376 121.045 35.3626 119.964 33.0556C118.884 30.7486 116.711 26.9236 115.135 24.5556C113.561 22.1876 110.692 18.6591 108.761 16.7146C106.83 14.7701 103.763 12.1291 101.945 10.8456C100.127 9.56211 96.8645 7.62761 94.695 6.54611C92.525 5.46461 89.323 4.10263 87.579 3.51913C85.835 2.93613 82.235 1.96811 79.579 1.36911C74.9065 0.31511 73.664 0.276126 41.25 0.179626L0 0.179652ZM74.25 32.6686C72.6 31.7986 69.9 30.7041 68.25 30.2366C65.961 29.5881 37 30 37 30V86H67C68.65 85.635 71.418 84.6171 73.456 83.6476C76.1315 82.3746 78.0865 80.9471 80.486 78.5141C82.7555 76.2131 84.3785 73.9716 85.603 71.4471C86.5895 69.4136 87.6835 66.5126 88.0335 65.0001C88.3835 63.4876 88.663 60.2206 88.654 57.7401C88.644 55.0011 88.2985 52.0556 87.774 50.2401C87.299 48.5956 86.0875 45.6751 85.082 43.7501C84.019 41.7151 81.9975 38.9946 80.252 37.2501C78.601 35.6001 75.9 33.5381 74.25 32.6686Z" fill="white"/>
</svg>
