<svg width="132" height="168" viewBox="0 0 132 168" fill="none" xmlns="http://www.w3.org/2000/svg">
<path d="M14 27V1.49012e-06L118 0V27H14Z" fill="white"/>
<path fill-rule="evenodd" clip-rule="evenodd" d="M56 36.743C53.9375 37.134 50.225 38.0346 47.75 38.7436C45.275 39.4531 40.5115 41.37 37.164 43.0035C33.5255 44.779 29.0645 47.49 26.0715 49.745C23.318 51.819 19.685 55.0315 17.9985 56.883C16.312 58.735 13.49 62.4013 11.7275 65.0308C9.965 67.6598 7.64451 71.7122 6.57101 74.0352C5.49751 76.3587 4.04249 80.0862 3.33749 82.3182C2.63249 84.5502 1.66249 88.3727 1.18249 90.8132C0.611989 93.7117 0.304 97.6773 0.294 102.25C0.2825 107.199 0.54598 110.495 1.19198 113.5C1.69498 115.838 2.663 119.55 3.3435 121.75C4.0245 123.95 5.83049 128.312 7.35699 131.442C8.91399 134.634 11.7255 139.246 13.7595 141.942C15.754 144.587 18.705 148.005 20.318 149.538C21.9305 151.071 25.151 153.733 27.474 155.454C29.7975 157.175 34.185 159.794 37.224 161.273C40.2635 162.753 44.775 164.546 47.25 165.258C49.725 165.97 54 166.899 56.75 167.324C60.324 167.875 63.7465 168.018 68.75 167.827C72.6 167.679 77.4375 167.191 79.5 166.741C81.5625 166.291 84.9375 165.362 87 164.675C89.0625 163.989 92.6375 162.544 94.9445 161.464C97.2515 160.384 101.039 158.235 103.362 156.69C105.685 155.144 109.872 151.592 112.668 148.796C115.463 145.999 119.175 141.629 120.918 139.083C122.66 136.537 124.952 132.607 126.01 130.35C127.068 128.092 128.522 124.221 129.242 121.748C129.962 119.274 130.876 115.113 131.272 112.5C131.669 109.888 131.994 105.163 131.994 102C131.994 98.8378 131.669 94.0938 131.272 91.4583C130.875 88.8228 129.866 84.5327 129.03 81.9252C128.195 79.3172 126.393 74.9862 125.026 72.3002C123.658 69.6142 121.256 65.6343 119.687 63.4558C118.119 61.2773 114.566 57.2945 111.793 54.605C109.019 51.9155 104.973 48.532 102.8 47.086C100.629 45.64 97.0285 43.5815 94.8005 42.5115C92.573 41.442 89.323 40.0925 87.579 39.5125C85.835 38.933 82.235 37.9906 79.579 37.4181C76.2695 36.7051 72.39 36.3236 67.25 36.2046C62.1745 36.0876 58.5375 36.2615 56 36.743ZM80.75 75.6497C79.1 74.7897 76.4 73.6343 74.75 73.0828C73.1 72.5313 70.175 71.9583 68.25 71.8093C66.1635 71.6478 63.244 71.8213 61.021 72.2393C58.794 72.6578 55.5715 73.7922 53.0225 75.0557C49.7215 76.6912 47.902 78.0337 45.0015 80.9722C42.825 83.1777 40.542 86.1057 39.564 87.9462C38.637 89.6912 37.571 92.2733 37.1955 93.6843C36.8205 95.0958 36.3815 97.9378 36.2205 100C36.034 102.383 36.1935 105.209 36.6575 107.75C37.059 109.95 37.9445 112.988 38.6245 114.5C39.305 116.013 40.905 118.657 42.1805 120.376C43.4555 122.095 45.9055 124.538 47.6245 125.804C49.3435 127.071 51.799 128.639 53.0805 129.29C54.3625 129.94 57.058 130.928 59.0705 131.486C61.169 132.068 64.227 132.497 66.24 132.493C68.1705 132.489 71.17 132.151 72.906 131.741C74.6415 131.332 77.454 130.307 79.156 129.463C80.8575 128.619 83.458 126.996 84.9345 125.857C86.411 124.719 88.6405 122.541 89.889 121.019C91.1375 119.496 92.885 116.675 93.773 114.75C94.661 112.825 95.6375 110.058 95.9435 108.601C96.2495 107.143 96.5 104.198 96.5 102.056C96.5 99.8112 96.081 96.5212 95.511 94.2927C94.967 92.1657 93.9035 89.2613 93.1475 87.8378C92.3915 86.4148 89.968 83.4423 87.7615 81.2318C85.326 78.7923 82.5715 76.5992 80.75 75.6497Z" fill="white"/>
</svg>
