<svg width="241" height="222" viewBox="0 0 241 222" fill="none" xmlns="http://www.w3.org/2000/svg">
<rect width="241" height="222" fill="#0A0F16"/>
<path d="M93.25 30.305C96 29.869 98.925 29.417 99.75 29.301C100.575 29.1855 105.975 29.1545 111.75 29.2325C120.165 29.3455 123.339 29.5925 127.735 30.476C130.752 31.0825 135.547 32.357 138.391 33.3085C141.236 34.2605 145.431 35.9265 147.714 37.0115C149.998 38.0965 153.932 40.3405 156.458 41.999C158.983 43.657 163.085 46.9765 165.573 49.375C168.061 51.774 171.2 55.202 172.548 56.9935C173.896 58.7845 175.906 61.9845 177.014 64.105C178.123 66.225 179.585 69.4365 180.265 71.241L182 76.5L183.5 84.5H144.5C144.5 84.5 142.607 77.976 140.926 75.648C139.246 73.32 136.381 70.1805 134.561 68.6715C132.74 67.162 129.45 65.053 127.25 63.9845C125.05 62.916 121.787 61.6965 120 61.275C118.213 60.854 114.613 60.365 112 60.189C109.201 60.001 105.402 60.114 102.75 60.465C100.275 60.7925 96.225 61.735 93.75 62.56C91.275 63.3845 87.5625 65.1095 85.5 66.393C83.4375 67.6765 80.1455 70.307 78.1845 72.2385C76.224 74.1695 73.252 77.866 71.5815 80.452C69.9105 83.0385 67.754 87.126 66.7895 89.536C65.825 91.946 64.538 96.2425 63.929 99.084C63.013 103.361 62.8225 105.843 62.8225 113.5C62.8225 121.168 63.0125 123.638 63.9335 127.937C64.5445 130.79 65.8145 135.035 66.756 137.369C67.6975 139.704 69.5365 143.333 70.8425 145.432C72.149 147.532 75.025 151.063 77.234 153.279C79.4425 155.494 82.58 158.174 84.206 159.234C85.8315 160.294 88.9815 161.929 91.206 162.867C93.43 163.806 97.05 165.014 99.25 165.552C101.45 166.09 105.95 166.662 109.25 166.823C112.748 166.993 116.905 166.879 119.219 166.549C121.403 166.238 125.062 165.339 127.35 164.55C129.639 163.761 132.795 162.358 134.363 161.433C135.931 160.507 139.04 157.95 141.271 155.75C143.502 153.55 146.191 150.311 147.245 148.553C148.525 146.415 149.939 143.617 150.094 142L151 136.5H122.5V108.5H201.5V136.5H190C189.452 139.094 188.662 141.632 187.641 144.078L186.464 146.9C186.464 146.9 183.898 153.825 182.721 156.361C181.544 158.897 179.362 162.843 177.872 165.129C176.381 167.416 173.781 170.89 172.095 172.85C170.409 174.809 167.391 177.751 165.389 179.386C163.387 181.021 159.958 183.528 157.768 184.957C155.577 186.387 152.138 188.339 150.123 189.295C148.108 190.251 144.391 191.726 141.861 192.573C139.332 193.421 134.785 194.675 131.757 195.361C126.842 196.474 124.791 196.635 112.684 196.856C101.492 197.06 98.174 196.956 93.716 196.256C90.744 195.79 86.161 194.783 83.5315 194.017C80.9015 193.251 76.993 191.918 74.8455 191.056C72.6975 190.193 69.7725 188.9 68.3455 188.182C66.918 187.464 63.95 185.708 61.75 184.279C59.55 182.85 56.0625 180.285 54 178.578C51.9375 176.872 48.604 173.625 46.5925 171.363C44.5805 169.101 41.4895 165.095 39.7235 162.462C37.957 159.828 35.4095 155.328 34.062 152.462C32.7145 149.595 30.8935 145 30.0155 142.25C29.1375 139.5 28 135.225 27.488 132.75C26.9755 130.275 26.3025 125.895 25.991 123.016C25.68 120.137 25.4345 115.412 25.445 112.516C25.4555 109.62 25.8095 104.631 26.232 101.43C26.654 98.2295 27.547 93.503 28.2165 90.928C28.8855 88.3525 30.0365 84.559 30.7735 82.4975C31.511 80.4365 33.4495 76.119 35.082 72.904C36.7145 69.6885 39.445 65.076 41.15 62.654C42.855 60.2315 46.8375 55.65 50 52.4725C54.0805 48.372 57.4245 45.5825 61.5165 42.864C64.6885 40.757 69.4545 38.0185 72.108 36.7785C74.7615 35.5385 79.479 33.753 82.5915 32.811C85.7035 31.8695 90.5 30.7415 93.25 30.305Z" fill="white"/>
</svg>
