<svg width="1134" height="964" viewBox="0 0 1134 964" fill="none" xmlns="http://www.w3.org/2000/svg">
<path d="M190 14H568C606.66 14 638 45.3401 638 84V113V142.5C638 181.16 606.66 212.5 568 212.5H84C45.3401 212.5 14 243.84 14 282.5V311V340.5C14 379.16 45.3401 410.5 84 410.5H1050C1088.66 410.5 1120 441.84 1120 480.5V511.5C1120 550.16 1088.66 581.5 1050 581.5H509.5C470.84 581.5 439.5 612.84 439.5 651.5V653C439.5 691.66 408.16 723 369.5 723H141C102.34 723 71 754.34 71 793V880C71 918.66 102.34 950 141 950H396.5" stroke="#00F148" stroke-width="28"/>
</svg>
