<svg width="186" height="219" viewBox="0 0 186 219" fill="none" xmlns="http://www.w3.org/2000/svg">
<rect width="186" height="219" fill="#0A0F16"/>
<path fill-rule="evenodd" clip-rule="evenodd" d="M29 29.1797V190H65L65.5 145.718H83.5L112 190H155L123 139C123 139 128.949 135.49 131.7 133.295C134.203 131.299 137.688 128.123 139.446 126.238C141.204 124.354 143.647 121.258 144.875 119.36C146.103 117.461 147.967 114.073 149.018 111.829C150.069 109.586 151.399 106.063 151.975 104C152.55 101.938 153.353 98.2251 153.758 95.7501C154.164 93.2751 154.496 89.3376 154.496 87.0001C154.496 84.6626 154.164 80.7251 153.758 78.2501C153.353 75.7751 152.55 72.0626 151.975 70.0001C151.399 67.9376 150.045 64.3626 148.964 62.0556C147.884 59.7486 145.711 55.9236 144.135 53.5556C142.56 51.1876 139.692 47.6591 137.761 45.7146C135.83 43.7701 132.763 41.1291 130.945 39.8456C129.127 38.5621 125.865 36.6276 123.695 35.5461C121.525 34.4646 118.323 33.1026 116.579 32.5191C114.835 31.9361 111.235 30.9681 108.579 30.3691C103.906 29.3151 102.664 29.2761 70.25 29.1796L29 29.1797ZM103.25 61.6686C101.6 60.7986 98.9 59.7041 97.25 59.2366C94.961 58.5881 66 59 66 59V115H96C97.65 114.635 100.418 113.617 102.456 112.648C105.131 111.375 107.087 109.947 109.486 107.514C111.756 105.213 113.379 102.972 114.603 100.447C115.59 98.4136 116.684 95.5126 117.034 94.0001C117.384 92.4876 117.663 89.2206 117.654 86.7401C117.644 84.0011 117.298 81.0556 116.774 79.2401C116.299 77.5956 115.087 74.6751 114.082 72.7501C113.019 70.7151 110.998 67.9946 109.252 66.2501C107.601 64.6001 104.9 62.5381 103.25 61.6686Z" fill="white"/>
</svg>
