<svg width="1162" height="1104" viewBox="0 0 1162 1104" fill="none" xmlns="http://www.w3.org/2000/svg">
<g id="Separated">
<path id="empty-line" d="M219 93H597C635.66 93 667 124.34 667 163V192V221.5C667 260.16 635.66 291.5 597 291.5H113C74.3401 291.5 43 322.84 43 361.5V390V419.5C43 458.16 74.3401 489.5 113 489.5H1079C1117.66 489.5 1149 520.84 1149 559.5V590.5C1149 629.16 1117.66 660.5 1079 660.5H538.5C499.84 660.5 468.5 691.84 468.5 730.5V732C468.5 770.66 437.16 802 398.5 802H170C131.34 802 100 833.34 100 872V959C100 997.66 131.34 1029 170 1029H425.5" stroke="black"/>
<path id="LINJEN" fill-rule="evenodd" clip-rule="evenodd" d="M453.5 939.5V1101.5H537.5V1068.5H491.5V939.5H453.5ZM549.5 939.5V1101.5H587.5V939.5H549.5ZM601.5 939.5V1101.5H639.5V997.5L697.5 1101.5H736.5V939.5H699.5V1044L641.247 939.5H601.5ZM824.5 939.5V1053C824.5 1053 824.677 1053.33 823.807 1056.25C823.315 1057.9 822.23 1060.54 821.394 1062.11C820.558 1063.69 818.666 1066.12 817.189 1067.51C815.711 1068.91 813.321 1070.59 811.876 1071.25C810.432 1071.91 807.781 1072.68 805.986 1072.97C803.857 1073.3 801.714 1073.32 799.825 1073.01C798.232 1072.75 795.715 1071.99 794.23 1071.31C792.746 1070.63 790.364 1068.99 788.937 1067.66C787.51 1066.33 785.695 1064.24 784.904 1063C784.113 1061.76 782.802 1058.61 781.99 1056C781.179 1053.39 781 1049.19 781 1049.19V1045.5H744L745 1054C745 1054 745.832 1059.86 746.685 1063.18C747.453 1066.17 748.817 1070.36 749.717 1072.49C750.617 1074.63 752.589 1078.27 754.1 1080.59C755.611 1082.9 758.23 1086.28 759.92 1088.09C761.611 1089.89 764.687 1092.54 766.757 1093.97C768.827 1095.4 772.445 1097.46 774.797 1098.55C777.149 1099.64 780.915 1101.06 783.165 1101.71C785.415 1102.36 789.468 1103.18 792.171 1103.52C795.34 1103.91 800.131 1104.03 805.667 1103.85C811.577 1103.66 815.807 1103.24 819.25 1102.5C822 1101.92 826.449 1100.56 829.137 1099.49C831.825 1098.41 835.65 1096.48 837.637 1095.2C839.624 1093.91 843.013 1091.15 845.167 1089.06C847.322 1086.96 850.081 1083.75 851.298 1081.92C852.515 1080.09 854.099 1077.28 854.818 1075.67C855.536 1074.07 856.755 1070.9 857.527 1068.63C858.299 1066.37 859.34 1062.66 859.84 1060.38V1060.38C861.275 1053.86 861.501 1047.18 861.483 1040.51C861.396 1008.42 861 939.5 861 939.5H824.5ZM874.5 939.5V1101.71H973.5V1071.5H912.5V1035.5H973.5V1006.5H912.5V969.5H973.5V939.5H874.5ZM984.5 939.5V1101.71H1022.5V998L1080.5 1101.5L1119.5 1101.71V939.5H1082.5V1045L1023.47 939.5H984.5Z" fill="white"/>
<path id="line-5" d="M424.5 1029H169C130.34 1029 99 997.66 99 959V901" stroke="#00F148" stroke-width="28"/>
<path id="A" fill-rule="evenodd" clip-rule="evenodd" d="M85.9998 710.5L28 872.5H68L73.9998 853H132L138 872.5H179L120 710.5L85.9998 710.5ZM122.5 823.5L103 758L83.5 823.5H122.5Z" fill="white"/>
<path id="line-4" d="M794 660.5H537.5C498.84 660.5 467.5 691.84 467.5 730.5V732C467.5 770.66 436.16 802 397.5 802H198" stroke="#00F148" stroke-width="28"/>
<path id="N" d="M824 730V569H863L922 674.5V569L958.5 569V730.5H919.5L861 626V730H824Z" fill="white"/>
<path id="line-3" d="M410 489.5H1078C1116.66 489.5 1148 520.84 1148 559.5V590.5C1148 629.16 1116.66 660.5 1078 660.5H989" stroke="#00F148" stroke-width="28"/>
<g id="&#195;&#150;">
<path d="M265 418V391L369 391V418H265Z" fill="white"/>
<path fill-rule="evenodd" clip-rule="evenodd" d="M307 427.743C304.937 428.134 301.225 429.035 298.75 429.744C296.275 430.453 291.511 432.37 288.164 434.004C284.525 435.779 280.064 438.49 277.071 440.745C274.318 442.819 270.685 446.032 268.998 447.883C267.312 449.735 264.49 453.401 262.728 456.031C260.965 458.66 258.645 462.712 257.571 465.035C256.498 467.359 255.042 471.086 254.337 473.318C253.632 475.55 252.662 479.373 252.182 481.813C251.612 484.712 251.304 488.677 251.294 493.25C251.282 498.199 251.546 501.495 252.192 504.5C252.695 506.838 253.663 510.55 254.343 512.75C255.024 514.95 256.83 519.312 258.357 522.442C259.914 525.634 262.725 530.246 264.759 532.942C266.754 535.587 269.705 539.005 271.318 540.538C272.93 542.071 276.151 544.733 278.474 546.454C280.797 548.175 285.185 550.794 288.224 552.273C291.263 553.753 295.775 555.546 298.25 556.258C300.725 556.97 305 557.899 307.75 558.324C311.324 558.875 314.746 559.018 319.75 558.827C323.6 558.679 328.437 558.191 330.5 557.741C332.562 557.291 335.937 556.362 338 555.675C340.062 554.989 343.637 553.544 345.944 552.464C348.251 551.384 352.039 549.235 354.362 547.69C356.685 546.144 360.872 542.592 363.668 539.796C366.463 536.999 370.175 532.629 371.918 530.083C373.66 527.537 375.952 523.607 377.01 521.35C378.068 519.092 379.522 515.221 380.242 512.748C380.962 510.274 381.876 506.113 382.272 503.5C382.669 500.888 382.994 496.163 382.994 493C382.994 489.838 382.669 485.094 382.272 482.458C381.875 479.823 380.866 475.533 380.03 472.925C379.195 470.317 377.393 465.986 376.026 463.3C374.658 460.614 372.256 456.634 370.687 454.456C369.119 452.277 365.566 448.295 362.793 445.605C360.019 442.916 355.973 439.532 353.8 438.086C351.628 436.64 348.028 434.582 345.8 433.512C343.573 432.442 340.323 431.093 338.579 430.513C336.835 429.933 333.235 428.991 330.579 428.418C327.27 427.705 323.39 427.324 318.25 427.205C313.174 427.088 309.537 427.262 307 427.743ZM331.75 466.65C330.1 465.79 327.4 464.634 325.75 464.083C324.1 463.531 321.175 462.958 319.25 462.809C317.163 462.648 314.244 462.821 312.021 463.239C309.794 463.658 306.571 464.792 304.022 466.056C300.721 467.691 298.902 469.034 296.001 471.972C293.825 474.178 291.542 477.106 290.564 478.946C289.637 480.691 288.571 483.273 288.195 484.684C287.82 486.096 287.381 488.938 287.22 491C287.034 493.383 287.193 496.209 287.657 498.75C288.059 500.95 288.945 503.988 289.625 505.5C290.305 507.013 291.905 509.657 293.181 511.376C294.456 513.095 296.906 515.538 298.625 516.804C300.344 518.071 302.799 519.639 304.08 520.29C305.362 520.94 308.058 521.928 310.07 522.486C312.169 523.068 315.227 523.497 317.24 523.493C319.17 523.489 322.17 523.151 323.906 522.741C325.641 522.332 328.454 521.307 330.156 520.463C331.857 519.619 334.458 517.996 335.935 516.857C337.411 515.719 339.64 513.541 340.889 512.019C342.137 510.496 343.885 507.675 344.773 505.75C345.661 503.825 346.638 501.058 346.944 499.601C347.25 498.143 347.5 495.198 347.5 493.056C347.5 490.811 347.081 487.521 346.511 485.293C345.967 483.166 344.903 480.261 344.147 478.838C343.391 477.415 340.968 474.442 338.761 472.232C336.326 469.792 333.571 467.599 331.75 466.65Z" fill="white"/>
</g>
<path id="line-2" d="M596 291.5H112C73.3401 291.5 42 322.84 42 361.5V390V419.5C42 458.16 73.3401 489.5 112 489.5H221" stroke="#00F148" stroke-width="28"/>
<path id="R" fill-rule="evenodd" clip-rule="evenodd" d="M625 193.18V354H661L661.5 309.718H679.5L708 354H751L719 303C719 303 724.948 299.49 727.699 297.295C730.202 295.299 733.688 292.123 735.446 290.238C737.204 288.354 739.647 285.258 740.875 283.36C742.103 281.461 743.967 278.073 745.018 275.829C746.069 273.586 747.399 270.063 747.975 268C748.55 265.938 749.353 262.225 749.758 259.75C750.164 257.275 750.496 253.338 750.496 251C750.496 248.663 750.164 244.725 749.758 242.25C749.353 239.775 748.55 236.063 747.975 234C747.399 231.938 746.045 228.363 744.964 226.056C743.884 223.749 741.711 219.924 740.135 217.556C738.56 215.188 735.692 211.659 733.761 209.715C731.83 207.77 728.762 205.129 726.945 203.846C725.127 202.562 721.864 200.628 719.695 199.546C717.525 198.465 714.323 197.103 712.579 196.519C710.835 195.936 707.235 194.968 704.579 194.369C699.906 193.315 698.664 193.276 666.25 193.18L625 193.18ZM699.25 225.669C697.6 224.799 694.9 223.704 693.25 223.237C690.961 222.588 662 223 662 223V279H692C693.65 278.635 696.418 277.617 698.456 276.648C701.131 275.375 703.086 273.947 705.486 271.514C707.755 269.213 709.378 266.972 710.603 264.447C711.589 262.414 712.683 259.513 713.033 258C713.383 256.488 713.663 253.221 713.654 250.74C713.644 248.001 713.298 245.056 712.774 243.24C712.299 241.596 711.087 238.675 710.082 236.75C709.019 234.715 706.997 231.995 705.252 230.25C703.601 228.6 700.9 226.538 699.25 225.669Z" fill="white"/>
<path id="line-1" d="M218 93H596C634.66 93 666 124.34 666 163V164" stroke="#00F148" stroke-width="28"/>
<path id="G" d="M68.25 1.30501C71 0.869012 73.925 0.417014 74.75 0.301014C75.575 0.185514 80.975 0.15451 86.75 0.23251C95.1655 0.34551 98.339 0.59251 102.735 1.47601C105.752 2.08251 110.547 3.35701 113.391 4.30851C116.236 5.26051 120.431 6.92651 122.714 8.01151C124.998 9.09651 128.932 11.3405 131.458 12.999C133.983 14.657 138.085 17.9765 140.573 20.375C143.061 22.774 146.2 26.202 147.548 27.9935C148.896 29.7845 150.906 32.9845 152.014 35.105C153.123 37.225 154.585 40.4365 155.265 42.241L157 47.5L158.5 55.5H119.5C119.5 55.5 117.607 48.976 115.926 46.648C114.246 44.32 111.381 41.1805 109.561 39.6715C107.74 38.162 104.45 36.053 102.25 34.9845C100.05 33.916 96.7875 32.6965 95 32.275C93.2125 31.854 89.6125 31.365 87 31.189C84.201 31.001 80.402 31.114 77.75 31.465C75.275 31.7925 71.225 32.735 68.75 33.56C66.275 34.3845 62.5625 36.1095 60.5 37.393C58.4375 38.6765 55.1455 41.307 53.1845 43.2385C51.224 45.1695 48.252 48.866 46.5815 51.452C44.9105 54.0385 42.754 58.126 41.7895 60.536C40.825 62.946 39.538 67.2425 38.929 70.084C38.013 74.3605 37.8225 76.843 37.8225 84.5C37.8225 92.1675 38.0125 94.6375 38.9335 98.937C39.5445 101.79 40.8145 106.035 41.756 108.369C42.6975 110.704 44.5365 114.333 45.8425 116.432C47.149 118.532 50.025 122.063 52.234 124.279C54.4425 126.494 57.58 129.174 59.206 130.234C60.8315 131.294 63.9815 132.929 66.206 133.867C68.43 134.806 72.05 136.014 74.25 136.552C76.45 137.09 80.95 137.662 84.25 137.823C87.748 137.993 91.9055 137.879 94.2195 137.549C96.403 137.238 100.062 136.339 102.35 135.55C104.639 134.761 107.795 133.358 109.363 132.433C110.931 131.507 114.04 128.95 116.271 126.75C118.502 124.55 121.191 121.311 122.245 119.553C123.525 117.415 124.939 114.617 125.094 113L126 107.5H97.5V79.5H176.5V107.5H165C164.452 110.094 163.662 112.632 162.641 115.078L161.464 117.9C161.464 117.9 158.898 124.825 157.721 127.361C156.544 129.897 154.362 133.843 152.872 136.129C151.381 138.416 148.781 141.89 147.095 143.85C145.409 145.809 142.391 148.751 140.389 150.386C138.387 152.021 134.958 154.528 132.768 155.957C130.577 157.387 127.138 159.339 125.123 160.295C123.108 161.251 119.391 162.726 116.861 163.573C114.332 164.421 109.785 165.675 106.757 166.361C101.842 167.474 99.7915 167.635 87.6845 167.856C76.492 168.06 73.174 167.956 68.716 167.256C65.744 166.79 61.161 165.783 58.5315 165.017C55.9015 164.251 51.993 162.918 49.8455 162.056C47.6975 161.193 44.7725 159.9 43.3455 159.182C41.918 158.464 38.95 156.708 36.75 155.279C34.55 153.85 31.0625 151.285 29 149.578C26.9375 147.872 23.604 144.625 21.5925 142.363C19.5805 140.101 16.4895 136.095 14.7235 133.462C12.957 130.828 10.4095 126.328 9.06199 123.462C7.71449 120.595 5.8935 116 5.0155 113.25C4.1375 110.5 3 106.225 2.488 103.75C1.9755 101.275 1.30249 96.8945 0.990994 94.0155C0.679994 91.1365 0.434496 86.4115 0.444996 83.5155C0.455496 80.6195 0.809499 75.631 1.232 72.43C1.654 69.2295 2.547 64.503 3.2165 61.928C3.8855 59.3525 5.0365 55.559 5.7735 53.4975C6.511 51.4365 8.4495 47.119 10.082 43.904C11.7145 40.6885 14.445 36.076 16.15 33.654C17.855 31.2315 21.8375 26.65 25 23.4725C29.0805 19.372 32.4245 16.5825 36.5165 13.864C39.6885 11.757 44.4545 9.01852 47.108 7.77852C49.7615 6.53852 54.479 4.75301 57.5915 3.81101C60.7035 2.86951 65.5 1.74151 68.25 1.30501Z" fill="white"/>
</g>
</svg>
