<svg width="70" height="1000" viewBox="0 0 70 1000" fill="none" xmlns="http://www.w3.org/2000/svg">
<path fill-rule="evenodd" clip-rule="evenodd" d="M22.3605 1000L20.7725 990.833C19.1845 981.667 16.0085 963.333 19.1845 944.167C22.3605 925.833 31.8884 907.5 28.7124 889.167C25.5364 870 9.65659 851.667 3.30465 833.333C-3.04729 815 0.128676 796.667 9.65658 777.5C19.1845 759.167 35.0643 740.833 35.0643 722.5C35.0643 703.333 19.1845 685 22.3605 666.667C25.5364 648.333 47.7682 630 57.2961 610.833C66.824 592.5 63.648 574.167 57.2961 555.833C50.9442 536.667 41.4163 518.333 36.6523 500C31.8884 481.667 31.8884 463.333 38.2403 444.167C44.5922 425.833 57.2961 407.5 55.7081 389.167C54.1201 370 38.2403 351.667 33.4763 333.333C28.7124 315 35.0643 296.667 43.0042 277.5C50.9442 259.167 60.4721 240.833 52.5321 222.5C44.5922 203.333 19.1845 185 11.2445 166.667C3.30462 148.333 12.8325 130 22.3604 110.833C31.8883 92.5 41.4162 74.1667 38.2403 55.8334C35.0643 36.6667 19.1845 18.3334 11.2445 9.16669L3.30461 2.36974e-05L70 2.07821e-05L70 9.16669C70 18.3334 70 36.6667 70 55.8334C70 74.1667 70 92.5 70 110.833C70 130 70 148.333 70 166.667C70 185 70 203.333 70 222.5C70 240.833 70 259.167 70 277.5C70 296.667 70 315 70 333.333C70 351.667 70 370 70 389.167C70 407.5 70 425.833 70 444.167C70 463.333 70 481.667 70 500C70 518.333 70 536.667 70 555.833C70 574.167 70 592.5 70 610.833C70 630 70 648.333 70 666.667C70 685 70 703.333 70 722.5C70 740.833 70 759.167 70 777.5C70 796.667 70 815 70 833.333C70 851.667 70 870 70 889.167C70 907.5 70 925.833 70 944.167C70 963.333 70 981.667 70 990.833L70 1000L22.3605 1000Z" fill="#0099FF"/>
</svg>
