<svg width="67" height="1000" viewBox="0 0 67 1000" fill="none" xmlns="http://www.w3.org/2000/svg">
<path fill-rule="evenodd" clip-rule="evenodd" d="M19.36 1000L17.772 990.833C16.184 981.667 38.3241 963.333 41.5 944.167C44.676 925.833 11.42 923.833 8.24408 905.5C5.06811 886.333 41.5917 881.333 35.2398 863C28.8878 844.667 25.712 815.667 35.2399 796.5C44.7678 778.167 16.184 740.833 16.184 722.5C16.184 703.333 38.3241 685 41.5 666.667C44.676 648.333 22.536 607.167 32.0639 588C41.5918 569.667 47.852 518.333 41.5 500C35.1481 480.833 20.9485 485.333 16.1845 467C11.4206 448.667 28.8879 463.333 35.2398 444.167C41.5918 425.833 54.2956 407.5 52.7077 389.167C51.1197 370 24.1239 378.333 19.36 360C14.596 341.667 8.24412 277.667 16.184 258.5C24.124 240.167 40.0038 240.833 32.0639 222.5C24.124 203.333 49.44 185 41.5 166.667C33.5601 148.333 16.184 142.167 25.7119 123C35.2399 104.667 38.4158 74.1667 35.2398 55.8334C32.0638 36.6667 16.184 18.3334 8.24408 9.16669L0.304156 0L66.9995 -2.91535e-06L66.9995 9.16668C66.9995 18.3334 66.9995 36.6667 66.9995 55.8334C66.9995 74.1667 66.9995 92.5 66.9995 110.833C66.9995 130 66.9995 148.333 66.9995 166.667C66.9995 185 66.9995 203.333 66.9995 222.5C66.9995 240.833 66.9995 259.167 66.9995 277.5C66.9995 296.667 66.9995 315 66.9995 333.333C66.9995 351.667 66.9995 370 66.9995 389.167C66.9995 407.5 66.9995 425.833 66.9995 444.167C66.9995 463.333 66.9995 481.667 66.9995 500C66.9995 518.333 66.9995 536.667 66.9995 555.833C66.9995 574.167 66.9995 592.5 66.9995 610.833C66.9995 630 66.9995 648.333 66.9995 666.667C66.9995 685 66.9995 703.333 66.9995 722.5C66.9995 740.833 66.9995 759.167 66.9995 777.5C66.9995 796.667 66.9995 815 66.9995 833.333C66.9995 851.667 66.9995 870 66.9995 889.167C66.9995 907.5 66.9995 925.833 66.9995 944.167C66.9995 963.333 66.9995 981.667 66.9995 990.833L66.9995 1000L19.36 1000Z" fill="#0099FF"/>
</svg>
