<svg width="189" height="214" viewBox="0 0 189 214" fill="none" xmlns="http://www.w3.org/2000/svg">
<rect width="189" height="214" fill="#0A0F16"/>
<path d="M44 51V24L148 24V51H44Z" fill="white"/>
<path fill-rule="evenodd" clip-rule="evenodd" d="M86 60.743C83.9375 61.134 80.225 62.0346 77.75 62.7436C75.275 63.4531 70.5115 65.37 67.164 67.0035C63.5255 68.779 59.0645 71.4901 56.0715 73.7451C53.318 75.8191 49.685 79.0316 47.9985 80.8831C46.312 82.7351 43.49 86.4013 41.7275 89.0308C39.965 91.6598 37.6445 95.7123 36.571 98.0353C35.4975 100.359 34.0425 104.086 33.3375 106.318C32.6325 108.55 31.6625 112.373 31.1825 114.813C30.612 117.712 30.304 121.677 30.294 126.25C30.2825 131.199 30.546 134.495 31.192 137.5C31.695 139.838 32.663 143.55 33.3435 145.75C34.0245 147.95 35.8305 152.312 37.357 155.442C38.914 158.634 41.7255 163.246 43.7595 165.942C45.754 168.587 48.705 172.005 50.318 173.538C51.9305 175.071 55.151 177.733 57.474 179.454C59.7975 181.175 64.185 183.794 67.224 185.273C70.2635 186.753 74.775 188.546 77.25 189.258C79.725 189.97 84 190.899 86.75 191.324C90.324 191.875 93.7465 192.018 98.75 191.827C102.6 191.679 107.438 191.191 109.5 190.741C111.562 190.291 114.938 189.362 117 188.675C119.062 187.989 122.637 186.544 124.944 185.464C127.251 184.384 131.039 182.235 133.362 180.69C135.685 179.144 139.872 175.592 142.668 172.796C145.463 169.999 149.175 165.629 150.918 163.083C152.66 160.537 154.952 156.607 156.01 154.35C157.068 152.092 158.523 148.221 159.243 145.748C159.963 143.274 160.876 139.113 161.272 136.5C161.669 133.888 161.994 129.163 161.994 126C161.994 122.838 161.669 118.094 161.272 115.458C160.875 112.823 159.866 108.533 159.03 105.925C158.195 103.317 156.393 98.9863 155.026 96.3003C153.658 93.6143 151.256 89.6343 149.687 87.4558C148.119 85.2773 144.566 81.2945 141.793 78.605C139.019 75.9155 134.973 72.5321 132.801 71.0861C130.629 69.6401 127.029 67.5815 124.801 66.5115C122.573 65.442 119.323 64.0926 117.579 63.5126C115.835 62.9331 112.235 61.9906 109.579 61.4181C106.27 60.7051 102.39 60.3236 97.25 60.2046C92.1745 60.0876 88.5375 60.2615 86 60.743ZM110.75 99.6498C109.1 98.7898 106.4 97.6343 104.75 97.0828C103.1 96.5313 100.175 95.9583 98.25 95.8093C96.1635 95.6478 93.244 95.8213 91.021 96.2393C88.794 96.6578 85.5715 97.7923 83.0225 99.0558C79.7215 100.691 77.902 102.034 75.0015 104.972C72.825 107.178 70.542 110.106 69.564 111.946C68.637 113.691 67.571 116.273 67.1955 117.684C66.8205 119.096 66.3815 121.938 66.2205 124C66.034 126.383 66.1935 129.209 66.6575 131.75C67.059 133.95 67.9445 136.988 68.6245 138.5C69.305 140.013 70.905 142.657 72.1805 144.376C73.4555 146.095 75.9055 148.538 77.6245 149.804C79.3435 151.071 81.799 152.639 83.0805 153.29C84.3625 153.94 87.058 154.928 89.0705 155.486C91.169 156.068 94.227 156.497 96.24 156.493C98.1705 156.489 101.17 156.151 102.906 155.741C104.642 155.332 107.454 154.307 109.156 153.463C110.858 152.619 113.458 150.996 114.935 149.857C116.411 148.719 118.641 146.541 119.889 145.019C121.138 143.496 122.885 140.675 123.773 138.75C124.661 136.825 125.638 134.058 125.944 132.601C126.25 131.143 126.5 128.198 126.5 126.056C126.5 123.811 126.081 120.521 125.511 118.293C124.967 116.166 123.903 113.261 123.147 111.838C122.391 110.415 119.968 107.442 117.762 105.232C115.326 102.792 112.571 100.599 110.75 99.6498Z" fill="white"/>
</svg>
