<?xml version="1.0" standalone="no"?>
<!DOCTYPE svg PUBLIC "-//W3C//DTD SVG 20010904//EN"
 "http://www.w3.org/TR/2001/REC-SVG-20010904/DTD/svg10.dtd">
<svg version="1.0" xmlns="http://www.w3.org/2000/svg"
 width="700.000000pt" height="700.000000pt" viewBox="0 0 700.000000 700.000000"
 preserveAspectRatio="xMidYMid meet">
<metadata>
Created by potrace 1.14, written by Peter Selinger 2001-2017
</metadata>
<g transform="translate(0.000000,700.000000) scale(0.100000,-0.100000)"
fill="#000000" stroke="none">
<path d="M820 6749 c-28 -11 -507 -483 -551 -543 -24 -33 -29 -49 -29 -98 0
-32 6 -71 14 -86 16 -31 188 -202 203 -202 6 0 44 -46 86 -103 159 -217 476
-568 1041 -1151 l208 -216 -20 -57 c-91 -250 -73 -493 53 -743 67 -133 137
-223 299 -388 l150 -152 -46 -48 c-115 -119 -208 -266 -244 -388 -25 -83 -22
-211 5 -288 57 -160 204 -296 406 -376 l70 -28 6 -88 c12 -174 120 -361 254
-440 64 -37 159 -57 236 -50 l67 6 7 -45 c3 -25 15 -71 25 -101 80 -231 266
-360 494 -341 l74 7 4 -88 c3 -74 9 -96 32 -135 86 -148 298 -167 706 -61 74
19 169 45 210 58 l75 24 141 -138 c124 -122 151 -143 225 -178 104 -50 170
-65 274 -64 100 0 186 21 279 69 64 33 118 83 572 537 501 500 502 501 542
586 51 106 66 183 60 302 -8 154 -59 271 -176 399 -48 53 -54 64 -81 170 -104
402 -363 910 -674 1324 -270 358 -622 701 -947 921 -122 83 -314 193 -419 241
-83 38 -104 41 -388 52 l-203 8 -79 76 c-164 156 -348 268 -526 319 -69 20
-103 23 -245 23 -160 0 -168 -1 -258 -33 -51 -17 -98 -32 -103 -32 -6 0 -115
102 -242 228 -524 512 -972 917 -1155 1041 -34 23 -68 54 -76 69 -17 32 -171
185 -203 201 -26 13 -119 13 -153 0z m130 -366 l0 -63 56 0 c51 0 62 -5 127
-50 190 -131 705 -602 1286 -1176 l184 -181 81 43 c124 65 212 88 331 88 153
-1 274 -40 427 -140 l73 -47 -121 -18 c-364 -53 -511 -198 -448 -443 35 -134
159 -325 291 -446 237 -218 532 -360 873 -422 164 -29 428 -29 595 1 l120 21
816 -817 c620 -622 821 -829 838 -864 33 -72 45 -153 31 -223 -20 -101 -52
-149 -199 -299 l-137 -140 -24 114 c-56 276 -178 580 -343 854 -199 332 -403
546 -727 760 -234 155 -414 244 -941 465 -884 370 -1183 577 -1496 1036 -147
214 -288 380 -522 614 -371 371 -769 696 -1291 1055 -102 69 -187 129 -190
131 -2 3 54 63 125 134 l129 130 28 -27 c25 -24 28 -34 28 -90z m-97 -585
c759 -543 1293 -1047 1605 -1515 243 -364 564 -628 1047 -863 88 -43 322 -146
520 -230 612 -258 853 -384 1100 -578 95 -75 257 -240 329 -335 193 -259 367
-615 441 -906 29 -117 55 -275 55 -341 l0 -46 -222 -221 c-268 -266 -286 -278
-438 -278 -150 0 -173 14 -412 252 l-197 196 30 36 c240 287 291 413 259 634
-9 63 -47 158 -69 171 -5 3 5 32 22 63 30 54 32 65 32 158 0 94 -2 104 -34
168 -49 97 -153 206 -230 241 -32 14 -80 30 -105 35 -26 5 -49 10 -51 13 -2 2
3 24 13 48 11 31 17 76 17 145 0 94 -2 104 -36 175 -22 46 -59 100 -94 138
-97 105 -191 139 -359 129 -142 -9 -250 -40 -503 -144 -9 -3 -13 5 -13 25 0
54 -22 135 -52 195 -66 133 -170 202 -318 213 -198 15 -453 -50 -653 -167
l-82 -48 -148 147 c-203 202 -294 339 -337 509 -42 163 -21 321 65 492 l44 88
-46 44 c-76 74 -589 605 -743 769 -318 339 -615 690 -585 690 3 0 70 -46 148
-102z m3324 -1188 l142 -9 113 -57 c632 -317 1244 -974 1617 -1734 152 -310
203 -346 -516 371 l-638 637 -70 -19 c-156 -41 -256 -53 -430 -52 -134 0 -192
5 -275 22 -336 70 -622 230 -807 451 -78 93 -136 204 -137 262 -1 36 3 44 30
60 38 22 164 55 259 67 95 12 537 13 712 1z m-933 -1490 c75 -45 101 -164 62
-278 -17 -50 -23 -56 -120 -121 -251 -169 -516 -424 -612 -588 -22 -39 -23
-38 -142 17 -94 45 -180 120 -212 184 -42 88 -19 207 67 334 50 75 213 238
288 289 176 118 362 181 544 182 76 1 99 -3 125 -19z m945 -270 c71 -20 151
-132 151 -210 0 -70 -72 -185 -143 -229 -18 -11 -66 -32 -107 -47 -242 -86
-537 -273 -738 -467 -95 -92 -201 -223 -230 -284 -20 -42 -101 -75 -189 -77
-90 -2 -134 32 -190 144 -50 98 -54 140 -22 224 50 134 214 327 414 489 372
300 862 512 1054 457z m400 -655 c63 -33 141 -143 141 -198 0 -67 -72 -143
-177 -185 -151 -62 -384 -242 -598 -463 -61 -63 -130 -140 -155 -171 -47 -61
-88 -85 -196 -113 -146 -38 -242 3 -304 128 -43 87 -46 122 -21 204 79 260
516 620 926 763 165 57 316 71 384 35z m154 -668 c8 -74 7 -81 -21 -140 -38
-82 -124 -195 -257 -340 l-108 -118 58 -59 57 -58 -53 -15 c-194 -56 -357 -87
-454 -87 -105 0 -105 0 -105 79 0 55 5 75 29 116 100 172 478 540 669 652 60
36 111 53 147 50 30 -2 30 -3 38 -80z"/>
</g>
</svg>
