<svg width="250" height="250" viewBox="0 0 250 250" fill="none" xmlns="http://www.w3.org/2000/svg">
<circle cx="125" cy="125" r="124.5" fill="#05050F" stroke="#05050F"/>
<mask id="path-2-inside-1_26_66" fill="white">
<path d="M95 88.8952V72.4073H49.6269V88.8952H63.2152C60.852 95.8333 55.1016 99.3024 45.9639 99.3024C39.8197 99.3024 34.8964 97.1586 31.194 92.871C27.4917 88.5054 25.6405 82.8535 25.6405 75.9153C25.6405 68.8212 27.4129 63.1694 30.9577 58.9597C34.5813 54.672 39.6621 52.5282 46.2002 52.5282C50.2964 52.5282 53.6837 53.3858 56.3619 55.1008C59.119 56.7379 60.8126 58.9207 61.4428 61.6492H88.1468C87.5166 53.1519 83.3416 46.2527 75.6219 40.9516C67.9809 35.6505 58.1343 33 46.0821 33C44.3445 33 42.6505 33.0629 41 33.1886C40.6951 33.2118 40.3916 33.2372 40.0896 33.2647C22.4314 49.617 9.50328 71.0047 3.58743 95.1457C3.7124 95.4323 3.84065 95.717 3.97215 96C6.0041 100.372 8.81561 104.319 12.4067 107.839C20.7566 115.946 31.5879 120 44.9005 120C56.7952 120 66.4449 117.31 73.8495 111.931C81.3329 106.552 86.2168 98.8737 88.5012 88.8952H95Z"/>
<path d="M112 163V81H136.717V142.031H165V163H112Z"/>
<path fill-rule="evenodd" clip-rule="evenodd" d="M182 129V211H215.714C226.398 199.734 235.006 186.48 240.924 171.85C238.564 170.518 235.844 169.668 232.764 169.297C237.459 168.47 241.208 166.487 244.008 163.346C245.844 157.644 247.282 151.763 248.288 145.737C247.423 141.308 245.199 137.642 241.618 134.74C236.896 130.913 230.481 129 222.375 129H182ZM206.556 144.697H214.347C217.417 144.697 219.817 145.478 221.549 147.04C223.28 148.524 224.146 150.593 224.146 153.249C224.146 155.982 223.241 158.13 221.431 159.691C219.699 161.253 217.338 162.034 214.347 162.034H206.556V144.697ZM222.257 191.554C220.525 193.194 218.086 194.014 214.938 194.014H206.556V176.209H215.056C218.046 176.209 220.447 177.029 222.257 178.669C224.067 180.23 224.972 182.339 224.972 184.994C224.972 187.728 224.067 189.914 222.257 191.554Z"/>
</mask>
<path d="M95 88.8952V72.4073H49.6269V88.8952H63.2152C60.852 95.8333 55.1016 99.3024 45.9639 99.3024C39.8197 99.3024 34.8964 97.1586 31.194 92.871C27.4917 88.5054 25.6405 82.8535 25.6405 75.9153C25.6405 68.8212 27.4129 63.1694 30.9577 58.9597C34.5813 54.672 39.6621 52.5282 46.2002 52.5282C50.2964 52.5282 53.6837 53.3858 56.3619 55.1008C59.119 56.7379 60.8126 58.9207 61.4428 61.6492H88.1468C87.5166 53.1519 83.3416 46.2527 75.6219 40.9516C67.9809 35.6505 58.1343 33 46.0821 33C44.3445 33 42.6505 33.0629 41 33.1886C40.6951 33.2118 40.3916 33.2372 40.0896 33.2647C22.4314 49.617 9.50328 71.0047 3.58743 95.1457C3.7124 95.4323 3.84065 95.717 3.97215 96C6.0041 100.372 8.81561 104.319 12.4067 107.839C20.7566 115.946 31.5879 120 44.9005 120C56.7952 120 66.4449 117.31 73.8495 111.931C81.3329 106.552 86.2168 98.8737 88.5012 88.8952H95Z" fill="white"/>
<path d="M112 163V81H136.717V142.031H165V163H112Z" fill="white"/>
<path fill-rule="evenodd" clip-rule="evenodd" d="M182 129V211H215.714C226.398 199.734 235.006 186.48 240.924 171.85C238.564 170.518 235.844 169.668 232.764 169.297C237.459 168.47 241.208 166.487 244.008 163.346C245.844 157.644 247.282 151.763 248.288 145.737C247.423 141.308 245.199 137.642 241.618 134.74C236.896 130.913 230.481 129 222.375 129H182ZM206.556 144.697H214.347C217.417 144.697 219.817 145.478 221.549 147.04C223.28 148.524 224.146 150.593 224.146 153.249C224.146 155.982 223.241 158.13 221.431 159.691C219.699 161.253 217.338 162.034 214.347 162.034H206.556V144.697ZM222.257 191.554C220.525 193.194 218.086 194.014 214.938 194.014H206.556V176.209H215.056C218.046 176.209 220.447 177.029 222.257 178.669C224.067 180.23 224.972 182.339 224.972 184.994C224.972 187.728 224.067 189.914 222.257 191.554Z" fill="white"/>
<path d="M0 76.7339L-0.5 76.7308V76.7339H0ZM12.5249 45.2782L12.1749 44.9212L12.1732 44.9228L12.5249 45.2782ZM245.278 175.271L245.643 174.929L245.643 174.929L245.278 175.271ZM242.799 204.909L243.122 205.29L243.125 205.287L242.799 204.909ZM244.333 162.971L243.956 162.644L243.951 162.649L244.333 162.971ZM3.58743 95.1457L4.07306 95.2647L4.11326 95.1007L4.04574 94.9458L3.58743 95.1457ZM40.0896 33.2647L40.135 33.7626L40.3045 33.7472L40.4293 33.6315L40.0896 33.2647ZM240.924 171.85L240.461 171.662L240.296 172.069L240.678 172.285L240.924 171.85ZM244.008 163.346L243.635 163.013L243.565 163.092L243.532 163.193L244.008 163.346ZM248.288 145.737L247.795 145.654L247.78 145.744L247.797 145.833L248.288 145.737ZM215.714 211V210.5H215.499L215.351 210.656L215.714 211ZM0.499991 76.737C0.578036 64.0701 4.70932 53.7163 12.8766 45.6336L12.1732 44.9228C3.79815 53.2111 -0.42049 63.8278 -0.499991 76.7308L0.499991 76.737ZM244.913 175.613C247.96 178.863 249.5 183.107 249.5 188.391H250.5C250.5 182.899 248.892 178.396 245.643 174.929L244.913 175.613ZM249.5 188.391C249.5 195.132 247.153 200.494 242.472 204.53L243.125 205.287C248.046 201.045 250.5 195.395 250.5 188.391H249.5ZM242.476 204.527C237.789 208.491 231.423 210.5 223.319 210.5V211.5C231.587 211.5 238.206 209.448 243.122 205.29L242.476 204.527ZM248.201 150.203C248.201 155.257 246.776 159.391 243.956 162.644L244.711 163.299C247.714 159.836 249.201 155.457 249.201 150.203H248.201ZM125 249.5C56.2406 249.5 0.5 193.759 0.5 125H-0.5C-0.5 194.312 55.6883 250.5 125 250.5V249.5ZM125 0.5C193.759 0.5 249.5 56.2406 249.5 125H250.5C250.5 55.6883 194.312 -0.5 125 -0.5V0.5ZM0.5 125C0.5 114.751 1.73825 104.792 4.07306 95.2647L3.1018 95.0267C0.748043 104.632 -0.5 114.67 -0.5 125H0.5ZM4.04574 94.9458C1.6851 89.5333 0.5 83.4653 0.5 76.7339H-0.5C-0.5 83.5844 0.706527 89.791 3.12912 95.3456L4.04574 94.9458ZM40.4293 33.6315C62.6349 13.0682 92.3492 0.5 125 0.5V-0.5C92.0874 -0.5 62.133 12.17 39.7499 32.8978L40.4293 33.6315ZM12.8749 45.6353C19.9058 38.7429 28.9811 34.779 40.135 33.7626L40.0442 32.7667C28.6931 33.8011 19.392 37.8462 12.1749 44.9212L12.8749 45.6353ZM223.319 210.5H215.714V211.5H223.319V210.5ZM247.797 145.833C248.066 147.21 248.201 148.666 248.201 150.203H249.201C249.201 148.607 249.061 147.086 248.779 145.641L247.797 145.833ZM243.951 162.649C243.847 162.772 243.742 162.894 243.635 163.013L244.382 163.679C244.494 163.552 244.606 163.424 244.715 163.294L243.951 162.649ZM249.5 125C249.5 132.037 248.916 138.937 247.795 145.654L248.781 145.819C249.912 139.047 250.5 132.092 250.5 125H249.5ZM243.532 163.193C242.608 166.063 241.583 168.887 240.461 171.662L241.388 172.037C242.519 169.24 243.553 166.392 244.484 163.499L243.532 163.193ZM215.351 210.656C192.663 234.581 160.574 249.5 125 249.5V250.5C160.86 250.5 193.207 235.459 216.077 211.344L215.351 210.656ZM240.678 172.285C242.255 173.174 243.666 174.283 244.913 175.613L245.643 174.929C244.326 173.526 242.835 172.353 241.17 171.414L240.678 172.285ZM95 72.4073H96V71.4073H95V72.4073ZM95 88.8952V89.8952H96V88.8952H95ZM88.5012 88.8952V87.8952H87.7043L87.5265 88.672L88.5012 88.8952ZM73.8495 111.931L73.2658 111.119L73.2618 111.122L73.8495 111.931ZM12.4067 107.839L11.7067 108.553L11.7101 108.556L12.4067 107.839ZM75.6219 40.9516L75.0519 41.7733L75.0558 41.776L75.6219 40.9516ZM88.1468 61.6492V62.6492H89.2237L89.144 61.5752L88.1468 61.6492ZM61.4428 61.6492L60.4684 61.8742L60.6474 62.6492H61.4428V61.6492ZM56.3619 55.1008L55.8227 55.9429L55.8369 55.952L55.8514 55.9606L56.3619 55.1008ZM30.9577 58.9597L30.1939 58.3142L30.1928 58.3156L30.9577 58.9597ZM31.194 92.871L30.4313 93.5178L30.4372 93.5245L31.194 92.871ZM63.2152 88.8952L64.1618 89.2176L64.6122 87.8952H63.2152V88.8952ZM49.6269 88.8952H48.6269V89.8952H49.6269V88.8952ZM49.6269 72.4073V71.4073H48.6269V72.4073H49.6269ZM41 33.1886L41.0759 34.1857L41 33.1886ZM3.97215 96L4.87901 95.5786L3.97215 96ZM232.764 169.297L232.591 168.312L232.644 170.29L232.764 169.297ZM182 211H181V212H182V211ZM182 129V128H181V129H182ZM241.618 134.74L240.988 135.517L240.988 135.517L241.618 134.74ZM206.556 144.697V143.697H205.556V144.697H206.556ZM206.556 162.034H205.556V163.034H206.556V162.034ZM221.431 159.691L220.777 158.934L220.769 158.942L220.761 158.949L221.431 159.691ZM221.549 147.04L220.879 147.783L220.888 147.791L220.898 147.799L221.549 147.04ZM222.257 191.554L221.586 190.813L221.577 190.821L221.569 190.828L222.257 191.554ZM222.257 178.669L221.586 179.41L221.595 179.418L221.604 179.426L222.257 178.669ZM206.556 176.209V175.209H205.556V176.209H206.556ZM206.556 194.014H205.556V195.014H206.556V194.014ZM112 163H111V164H112V163ZM112 81V80H111V81H112ZM136.717 81H137.717V80H136.717V81ZM136.717 142.031H135.717V143.031H136.717V142.031ZM165 142.031H166V141.031H165V142.031ZM165 163V164H166V163H165ZM3.58743 95.1457L2.61617 94.9077L2.53576 95.2358L2.67081 95.5455L3.58743 95.1457ZM40.0896 33.2647L39.9989 32.2688L39.6599 32.2997L39.4102 32.531L40.0896 33.2647ZM240.924 171.85L241.851 172.225L242.181 171.41L241.415 170.979L240.924 171.85ZM244.008 163.346L244.755 164.012L244.895 163.854L244.96 163.653L244.008 163.346ZM248.288 145.737L249.274 145.901L249.304 145.723L249.269 145.545L248.288 145.737ZM215.714 211V212H216.144L216.44 211.688L215.714 211ZM94 72.4073V88.8952H96V72.4073H94ZM95 87.8952H88.5012V89.8952H95V87.8952ZM87.5265 88.672C85.2899 98.4414 80.5292 105.899 73.2658 111.119L74.4332 112.743C82.1366 107.206 87.1437 99.3059 89.476 89.1183L87.5265 88.672ZM73.2618 111.122C66.0728 116.345 56.6472 119 44.9005 119V121C56.9432 121 66.8169 118.276 74.4372 112.741L73.2618 111.122ZM44.9005 119C31.8076 119 21.2395 115.021 13.1033 107.121L11.7101 108.556C20.2738 116.871 31.3682 121 44.9005 121V119ZM46.0821 34C57.9905 34 67.6216 36.6183 75.0519 41.7732L76.1919 40.13C68.3403 34.6827 58.2781 32 46.0821 32V34ZM75.0558 41.776C82.5537 46.9247 86.5442 53.561 87.1495 61.7232L89.144 61.5752C88.489 52.7427 84.1296 45.5807 76.188 40.1273L75.0558 41.776ZM88.1468 60.6492H61.4428V62.6492H88.1468V60.6492ZM62.4171 61.4242C61.7164 58.3902 59.8271 55.9954 56.8725 54.241L55.8514 55.9606C58.4109 57.4805 59.9088 59.4512 60.4684 61.8742L62.4171 61.4242ZM56.9012 54.2587C54.0216 52.4147 50.4332 51.5282 46.2002 51.5282V53.5282C50.1597 53.5282 53.3457 54.3568 55.8227 55.9429L56.9012 54.2587ZM46.2002 51.5282C39.4216 51.5282 34.0397 53.7636 30.1939 58.3142L31.7215 59.6052C35.1228 55.5805 39.9026 53.5282 46.2002 53.5282V51.5282ZM30.1928 58.3156C26.4568 62.7524 24.6405 68.655 24.6405 75.9153H26.6405C26.6405 68.9875 28.3691 63.5864 31.7226 59.6038L30.1928 58.3156ZM24.6405 75.9153C24.6405 83.0381 26.5451 88.9352 30.4314 93.5178L31.9567 92.2242C28.4384 88.0755 26.6405 82.6689 26.6405 75.9153H24.6405ZM30.4372 93.5245C34.3469 98.0523 39.5568 100.302 45.9639 100.302V98.3024C40.0825 98.3024 35.4458 96.2649 31.9509 92.2174L30.4372 93.5245ZM45.9639 100.302C50.6515 100.302 54.5689 99.4135 57.6465 97.5569C60.7425 95.6892 62.9117 92.8878 64.1618 89.2176L62.2686 88.5727C61.1555 91.8407 59.2679 94.243 56.6134 95.8444C53.9406 97.4568 50.414 98.3024 45.9639 98.3024V100.302ZM63.2152 87.8952H49.6269V89.8952H63.2152V87.8952ZM50.6269 88.8952V72.4073H48.6269V88.8952H50.6269ZM49.6269 73.4073H95V71.4073H49.6269V73.4073ZM41.0759 34.1857C42.6999 34.062 44.3686 34 46.0821 34V32C44.3204 32 42.601 32.0637 40.9241 32.1914L41.0759 34.1857ZM13.1067 107.125C9.59789 103.685 6.85803 99.8371 4.87901 95.5786L3.06529 96.4214C5.15016 100.908 8.03333 104.952 11.7067 108.553L13.1067 107.125ZM183 211V129H181V211H183ZM182 130H222.375V128H182V130ZM222.375 130C230.329 130 236.496 131.876 240.988 135.517L242.248 133.963C237.296 129.95 230.634 128 222.375 128V130ZM214.347 143.697H206.556V145.697H214.347V143.697ZM205.556 144.697V162.034H207.556V144.697H205.556ZM206.556 163.034H214.347V161.034H206.556V163.034ZM214.347 163.034C217.513 163.034 220.138 162.204 222.1 160.434L220.761 158.949C219.26 160.302 217.163 161.034 214.347 161.034V163.034ZM222.084 160.449C224.147 158.668 225.146 156.226 225.146 153.249H223.146C223.146 155.737 222.334 157.591 220.777 158.934L222.084 160.449ZM225.146 153.249C225.146 150.355 224.19 147.987 222.199 146.281L220.898 147.799C222.37 149.061 223.146 150.832 223.146 153.249H225.146ZM222.218 146.297C220.251 144.523 217.584 143.697 214.347 143.697V145.697C217.249 145.697 219.383 146.433 220.879 147.783L222.218 146.297ZM214.938 195.014C218.257 195.014 220.974 194.147 222.945 192.28L221.569 190.828C220.077 192.242 217.914 193.014 214.938 193.014V195.014ZM222.928 192.295C224.974 190.442 225.972 187.973 225.972 184.994H223.972C223.972 187.483 223.16 189.386 221.586 190.813L222.928 192.295ZM225.972 184.994C225.972 182.084 224.966 179.686 222.91 177.911L221.604 179.426C223.168 180.775 223.972 182.594 223.972 184.994H225.972ZM222.928 177.927C220.895 176.085 218.236 175.209 215.056 175.209V177.209C217.856 177.209 219.998 177.972 221.586 179.41L222.928 177.927ZM215.056 175.209H206.556V177.209H215.056V175.209ZM205.556 176.209V194.014H207.556V176.209H205.556ZM206.556 195.014H214.938V193.014H206.556V195.014ZM113 163V81H111V163H113ZM112 82H136.717V80H112V82ZM136.717 143.031H165V141.031H136.717V143.031ZM164 142.031V163H166V142.031H164ZM165 162H112V164H165V162ZM135.717 81V142.031H137.717V81H135.717ZM4.87901 95.5786C4.75084 95.3028 4.62585 95.0252 4.50404 94.746L2.67081 95.5455C2.79896 95.8393 2.93046 96.1313 3.06529 96.4214L4.87901 95.5786ZM4.55869 95.3837C10.4267 71.4379 23.2508 50.2211 40.7691 33.9984L39.4102 32.531C21.612 49.0129 8.57984 70.5715 2.61617 94.9077L4.55869 95.3837ZM40.1804 34.2605C40.4774 34.2335 40.7759 34.2085 41.0759 34.1857L40.9241 32.1914C40.6142 32.215 40.3058 32.2408 39.9989 32.2688L40.1804 34.2605ZM241.415 170.979C238.925 169.574 236.075 168.688 232.883 168.304L232.644 170.29C235.612 170.647 238.203 171.463 240.433 172.721L241.415 170.979ZM232.937 170.282C237.823 169.422 241.785 167.342 244.755 164.012L243.262 162.68C240.631 165.631 237.096 167.519 232.591 168.312L232.937 170.282ZM244.96 163.653C246.811 157.905 248.26 151.977 249.274 145.901L247.302 145.572C246.303 151.55 244.878 157.384 243.057 163.04L244.96 163.653ZM249.269 145.545C248.358 140.88 246.007 137.009 242.248 133.963L240.988 135.517C244.392 138.275 246.487 141.735 247.306 145.929L249.269 145.545ZM182 212H215.714V210H182V212ZM216.44 211.688C227.209 200.333 235.885 186.973 241.851 172.225L239.997 171.475C234.126 185.987 225.588 199.135 214.989 210.312L216.44 211.688Z" fill="#05050F" mask="url(#path-2-inside-1_26_66)"/>
<path d="M173 189H63C54.7157 189 48 182.284 48 174V164C48 155.716 54.7157 149 63 149H104" stroke="#00F148" stroke-width="10"/>
<path d="M146 108H178C186.284 108 193 101.284 193 93V64C193 55.7157 186.284 49 178 49H96.5" stroke="#00F148" stroke-width="10"/>
</svg>
