<svg width="378" height="378" viewBox="0 0 378 378" fill="none" xmlns="http://www.w3.org/2000/svg">
<rect width="378" height="378" fill="#05050F"/>
<path fill-rule="evenodd" clip-rule="evenodd" d="M193.818 57.0441H87.2886V49.0441H193.818C207.072 49.0441 217.818 59.7896 217.818 73.0441H209.818C209.818 64.2079 202.654 57.0441 193.818 57.0441Z" fill="#00F148"/>
<path fill-rule="evenodd" clip-rule="evenodd" d="M33.8174 129.044C33.8174 115.79 44.5628 105.044 57.8174 105.044H193.817V113.044H57.8174C48.9812 113.044 41.8174 120.208 41.8174 129.044V144.938C41.8174 153.833 49.0295 161.044 57.928 161.044H88.1441V169.044H57.928C44.6132 169.044 33.8174 158.253 33.8174 144.938V129.044Z" fill="#00F148"/>
<path fill-rule="evenodd" clip-rule="evenodd" d="M329.818 169.044H141.729V161.044H329.818C343.073 161.044 353.818 171.79 353.818 185.044V192.854C353.818 206.177 343.109 217.044 329.818 217.044H304.816V209.044H329.818C338.619 209.044 345.818 201.831 345.818 192.854V185.044C345.818 176.208 338.655 169.044 329.818 169.044Z" fill="#00F148"/>
<path fill-rule="evenodd" clip-rule="evenodd" d="M153.818 233.044C153.818 219.79 164.564 209.044 177.818 209.044H249.818V217.044H177.818C168.982 217.044 161.818 224.208 161.818 233.044C161.818 246.303 151.055 257.044 137.79 257.044H81.8179V249.044H137.79C146.647 249.044 153.818 241.875 153.818 233.044Z" fill="#00F148"/>
<path fill-rule="evenodd" clip-rule="evenodd" d="M49.8179 296.724V281.044H57.8179V296.724C57.8179 305.777 65.0699 313.044 73.9285 313.044H145.818V321.044H73.9285C60.5739 321.044 49.8179 310.117 49.8179 296.724Z" fill="#00F148"/>
<path d="M53.405 49.2645H75.693V57.1552H72.3837C70.557 67.5259 62.7957 74.5685 49.753 74.5685C34.4264 74.5685 25.8184 63.3512 25.8184 50.5685C25.8184 38.1125 34.8184 26.5685 49.753 26.5685C61.753 26.5685 70.0357 33.8739 70.8184 42.5472H59.5357C58.8837 38.9605 55.2317 35.6992 49.6877 35.6992C41.0784 35.6992 36.6437 42.9379 36.6437 50.6339C36.6437 58.7205 41.1437 65.6339 50.601 65.6339C56.9917 65.6339 60.7744 61.7205 61.4917 57.1552H53.405V49.2645Z" fill="white"/>
<path d="M201.944 81.1288H221.117C231.227 81.1288 237.748 88.7595 237.748 97.6288C237.748 104.021 234.357 109.694 228.683 112.369L237.813 126.781H225.552L217.465 114.129H212.509V126.781H201.944V81.1288ZM227.052 97.6288C227.052 93.3901 224.183 89.7381 219.748 89.7381H212.509V105.521H219.748C224.183 105.521 227.052 101.869 227.052 97.6288Z" fill="white"/>
<path d="M115.395 157.439C120.055 157.439 123.846 161.23 123.846 165.89C123.846 170.549 120.055 174.339 115.395 174.339C110.735 174.339 106.945 170.549 106.945 165.89C106.945 161.23 110.735 157.439 115.395 157.439ZM115.395 147.05C104.99 147.05 96.5552 155.485 96.5552 165.89C96.5552 176.294 104.99 184.729 115.395 184.729C125.801 184.729 134.235 176.294 134.235 165.89C134.235 155.485 125.801 147.05 115.395 147.05Z" fill="white"/>
<path d="M130.188 144.759H100.604V137.033H130.188V144.759Z" fill="white"/>
<path d="M285.781 216.931V187.192H296.281V232.844H285.259L268.823 203.496V232.844H258.259V187.192H269.281L285.781 216.931Z" fill="white"/>
<path d="M64.8614 272.85L63.1001 267.306H46.8614L45.1 272.85H33.8174L50.1227 227.198H59.84L76.34 272.85H64.8614ZM55.0134 240.241L49.4054 259.023H60.492L55.0134 240.241Z" fill="white"/>
<path d="M177.431 328.191V337.322H153.887V291.67H164.452V328.191H177.431Z" fill="white"/>
<path d="M180.823 291.669H191.519V337.321H180.823V291.669Z" fill="white"/>
<path d="M223.174 321.409V291.67H233.674V337.322H222.653L206.218 307.974V337.322H195.651V291.67H206.674L223.174 321.409Z" fill="white"/>
<path d="M268.936 321.604C268.936 332.431 262.674 338.43 252.24 338.43C241.218 338.43 235.609 331.06 235.609 321.539H246.174C246.174 326.039 248.196 329.366 252.24 329.366C256.284 329.366 258.436 326.43 258.436 321.604V291.67H268.936V321.604Z" fill="white"/>
<path d="M283.18 300.148V310.517H300.462V318.8H283.18V328.844H300.462V337.321H272.614V291.669H300.462V300.148H283.18Z" fill="white"/>
<path d="M331.035 321.409V291.67H341.535V337.322H330.513L314.079 307.974V337.322H303.513V291.67H314.535L331.035 321.409Z" fill="white"/>
</svg>
