<svg fill="none" xmlns="http://www.w3.org/2000/svg" viewBox="0 0 512 512">
    <path fill-rule="evenodd" clip-rule="evenodd"
        d="M240.019 308.445c9.056-17.268-2.278-25.722-5.253-26.147-9.244-1.321-30.769.589-50.685 16.511-5.781 4.621-11.456 10.445-16.681 17.759-5.504 7.706-6.983 13.678-6.803 18.082.178 4.365 2.03 8.285 5.281 11.853 5.36 5.883 13.825 9.984 21.02 11.899 6.201-10.909 16.292-21.772 27.657-31.433 7.841-6.664 16.531-12.962 25.464-18.524Z"
        fill="#000" />
    <path fill-rule="evenodd" clip-rule="evenodd"
        d="m481.322 356.061-4.485-4.485c-4.202-23.937-19.811-60.777-44.896-96.634-26.214-37.472-63.507-74.933-110.68-95.898l-1.419-.63-1.549-.091-1.886-.111c-10.004-.591-22.2-1.311-34.427-1.492l-1.962-1.962c-.08-.094-.177-.205-.289-.333-.337-.383-.815-.915-1.427-1.565-1.223-1.301-2.99-3.087-5.247-5.129-4.491-4.064-11.043-9.247-19.223-13.598-6.2-3.298-13.406-6.14-21.362-7.64-.612-.115-1.228-.222-1.849-.321-11.171-1.783-23.74-.864-37.028 5.111l-.001-.002c-16.742-16.641-40.271-39.496-61.354-58.8373-11.478-10.5304-22.336-20.1165-31.021-27.1076-4.3248-3.481-8.2644-6.4437-11.5578-8.578-.928-.6013-1.8589-1.1726-2.7767-1.6878-.4134-1.6226-1.257-3.1198-2.461-4.3239L73.8001 20.1251c-1.3821-1.3821-3.1504-2.2891-5.0513-2.6161-.5226-.0898-1.0551-.1358-1.5925-.1358l-3.2288-.0001c-2.492 0-4.8818.99-6.6439 2.752l-37.2621 37.262c-1.762 1.762-2.752 4.1518-2.7519 6.6438l-.0001 3.2295c0 2.4919.99 4.8818 2.752 6.6438L30.6453 84.528c1.2025 1.2024 2.6972 2.0453 4.3173 2.4593.5155.9183 1.0871 1.8499 1.6888 2.7784 2.1343 3.2934 5.097 7.233 8.578 11.5573 6.9911 8.685 16.5773 19.543 27.1077 31.022 19.3416 21.082 42.1969 44.612 58.8379 61.354-12.533 27.852-2.83 52.396 7.288 67.678 3.911 5.906 7.972 10.598 11.062 13.823 1.55 1.618 2.87 2.882 3.825 3.759.477.44.865.783 1.145 1.027.057.05.11.096.158.137l11.625 11.626c-4.454 4.31-8.75 9.249-12.779 14.89-7.083 9.916-10.346 19.552-9.971 28.709.375 9.196 4.374 16.791 9.722 22.661 7.519 8.252 18.162 13.654 27.613 16.434-.784 4.715-.623 9.539.947 14.249 5.705 17.114 15.424 26.035 27.562 27.878.263.04.526.076.788.109.502.062 1.004.112 1.503.15 3.428.258 6.788-.057 9.968-.707h.003c.022 3.102.495 6.221 1.523 9.306 2.914 8.742 7.259 15.344 12.917 19.836 5.576 4.427 11.832 6.332 17.861 6.735.124.009.248.017.372.024 3.704.21 7.374-.137 10.87-.818h.003c-.01.366-.023.701-.037 1.065-.025.652-.054 1.398-.072 2.586-.027 1.856.012 4.201.465 6.617.464 2.472 1.405 5.274 3.358 7.877 1.994 2.66 4.698 4.647 7.963 5.952 1.532.613 3.192 1.078 4.984 1.405 1.181.216 2.419.372 3.715.47 4.606.352 9.945-.016 16.055-.974 9.738-1.528 22.436-4.732 39.028-10.092h.002l15.167 15.166c6.464 6.464 14.434 10.505 22.78 12.121 1.624.315 3.262.537 4.905.668 12.443.992 25.226-3.271 34.744-12.789l62.937-62.936c17.189-17.19 17.239-45.028.148-62.28ZM245.809 149.215c4.704 2.502 8.799 5.381 12.128 8.062-7.969.583-15.51 1.654-21.881 3.484-5.813 1.669-11.666 4.241-15.845 8.541-4.634 4.766-6.609 11.062-5.201 18.104 3.835 19.177 21.985 39.809 46.839 53.064 24.219 12.916 56.085 19.609 91.098 11.376l116.252 116.251c10.463 10.576 10.428 27.632-.105 38.164l-17.931 17.932c-.386-2.729-.891-5.7-1.546-8.896-3.651-17.804-11.966-42.468-30.478-70.813-29.159-44.645-73.733-63.132-115.588-80.49l-.906-.375c-42.769-17.74-82.647-34.518-108.69-74.451-23.471-35.989-63.093-70.837-96.2419-96.4009-16.6764-12.8606-31.9142-23.5217-42.9867-30.9706-3.4204-2.301-6.4459-4.2972-8.9963-5.9587l19.8118-19.8117 4.5483 4.5483v8.9432h7.5754c.5787.2773 1.4676.7759 2.7032 1.5766 2.5742 1.6682 5.9903 4.2123 10.1361 7.5494 8.2554 6.6451 18.7961 15.9399 30.1851 26.3883 22.746 20.8681 48.457 45.9511 65.189 62.6821l4.556 4.556 5.632-3.129c19.391-10.773 36.666-6.881 49.742.074Zm189.406 287.8c.045 1.2.057 2.227.053 3.073l-29.111 29.11c-10.568 10.568-27.702 10.568-38.269 0l-25.595-25.591c3.46-3.832 7.277-8.371 10.7-13.026 2.776-3.776 5.428-7.81 7.422-11.735 1.885-3.713 3.68-8.272 3.68-12.837v-.182c0-2.807 0-6.06-.273-9.134-.274-3.089-.873-6.744-2.491-10.091-.86-1.778-2.017-3.479-3.519-4.946 1.442-2 2.701-4.224 3.623-6.679 1.854-4.935 2.252-10.549.409-16.546-1.795-5.841-5.565-11.576-11.258-17.268-5.348-5.348-12.431-7.636-19.584-8.16.413-.851.797-1.725 1.148-2.62 2.062-5.265 2.993-11.394 1.566-17.973-1.425-6.569-5.054-12.919-11.018-18.883-4.709-4.709-10.884-6.816-17.103-7.424-6.19-.605-12.976.207-19.828 1.865-8.019 1.94-16.649 5.169-25.351 9.291.517-17.227-10.931-30.115-23.234-31.873-12.34-1.763-35.438.502-57.586 15.521l-13.389-13.389-.291-.241-.008-.007-.008-.007-.011-.009-.176-.152c-.17-.148-.443-.389-.801-.718-.718-.66-1.777-1.672-3.051-3.002-2.559-2.671-5.931-6.569-9.154-11.437-8.976-13.556-16.133-33.344-3.673-55.772l3.129-5.632-4.556-4.556c-16.731-16.732-41.814-42.443-62.6817-65.189-10.4485-11.389-19.7432-21.9292-26.3883-30.1846-3.3371-4.1457-5.8813-7.5618-7.5495-10.136-.2345-.3619-.443-.694-.6277-.9972 10.203 6.9822 23.0596 16.1269 36.9209 26.8168 32.8433 25.328 70.5383 58.737 92.3653 92.205 29.144 44.688 73.733 63.18 115.606 80.546l.848.352c42.772 17.74 82.665 34.51 108.736 74.428 17.281 26.459 24.806 49.101 28.046 64.903 1.622 7.911 2.175 14.133 2.333 18.286ZM316.243 324.153c-2.048 5.23-6.637 9.8-10.269 12.362-17.626 5.388-36.998 16.296-52.559 29.142-11.039 9.113-20.78 19.711-26.472 30.664-5.318 2.491-10.568 4.033-15.006 3.359-3.893-.591-9.555-3.294-13.92-16.39-.914-2.741-.77-6.624 1.499-11.97 3.971-9.354 13.346-20.491 26.103-31.335 7.682-6.529 16.329-12.731 25.216-18.138 13.654-8.306 27.492-14.503 38.95-17.275 5.734-1.388 10.494-1.824 14.149-1.467 3.628.355 5.601 1.418 6.684 2.502 4.107 4.106 5.799 7.642 6.403 10.424.601 2.772.265 5.458-.778 8.122Zm20.521 54.024c4.015-2.714 7.421-5.859 8.679-9.208.575-1.528.765-3.265.072-5.52-.741-2.41-2.631-5.829-7.008-10.207-1.604-1.603-4.373-2.929-9.039-3.221-4.681-.293-10.599.518-17.417 2.507-15.384 4.488-33.299 14.365-47.76 26.303-11.004 9.084-19.274 18.761-23.162 27.37-2.624 5.808-2.923 10.351-1.765 13.825 2.12 6.362 4.836 9.877 7.332 11.859 2.464 1.956 5.312 2.897 8.579 3.082 6.355.36 13.532-2.178 19.332-4.993 5.262-7.009 12.394-14.866 19.938-22.205 6.613-6.434 13.708-12.632 20.382-17.652 6.482-4.876 13.23-9.154 19.044-11.092.95-.317 1.881-.6 2.793-.848Zm-12.428 59.557-6.042 6.042 8.709 8.703c-11.928 3.6-21.065 5.753-28.039 6.847-9.625 1.51-14.025.81-15.763.115-.404-.162-.583-.29-.643-.344-.028-.046-.134-.253-.231-.773-.137-.73-.196-1.729-.174-3.216.004-.324.022-.904.043-1.576.034-1.077.074-2.392.08-3.273.003-.003.009-.024.02-.062.056-.193.243-.837.837-2.033.849-1.707 2.2-3.89 4.067-6.482 4.584-6.361 11.532-14.153 19.257-21.669 6.209-6.04 12.756-11.743 18.74-16.244 6.177-4.647 11.104-7.513 14.176-8.537 1.062-.355 1.999-.619 2.82-.81 2.185-.509 3.316-.449 3.759-.383.294.609.65 1.865.854 4.163.199 2.248.205 4.787.205 7.807 0 .471-.303 2.1-1.828 5.101-1.415 2.788-3.484 5.993-5.953 9.35-4.932 6.708-10.925 13.305-14.894 17.274Z"
        fill="#000" />
    <path fill-rule="evenodd" clip-rule="evenodd"
        d="m353.307 234.133 4.782-1.305 93.447 93.447c-7.176-18.211-18.422-39.854-33.593-61.541-24.809-35.464-59.41-70.014-102.22-89.45l-.23-.013c-11.037-.652-24.222-1.43-37.137-1.505-14.837-.087-28.394.775-37.585 3.414-4.64 1.333-7.16 2.846-8.311 4.029-.696.717-1.008 1.3-.698 2.847 2.458 12.292 15.777 29.422 38.126 41.34 21.87 11.664 51.106 17.549 83.419 8.737Z"
        fill="#000" />
    <path
        d="m358.089 232.828-4.782 1.305c-32.313 8.812-61.549 2.927-83.419-8.737-22.349-11.918-35.668-29.048-38.126-41.34-.31-1.547.002-2.13.698-2.847 1.151-1.183 3.671-2.696 8.311-4.029 9.191-2.639 22.748-3.501 37.585-3.414 12.915.075 26.1.853 37.137 1.505l.23.013c42.81 19.436 77.411 53.986 102.22 89.45 15.171 21.687 26.417 43.33 33.593 61.541l-93.447-93.447ZM234.766 282.298c2.975.425 14.309 8.879 5.253 26.147-8.933 5.562-17.623 11.86-25.464 18.524-11.365 9.661-21.456 20.524-27.657 31.433-7.195-1.915-15.66-6.016-21.02-11.899-3.251-3.568-5.103-7.488-5.281-11.853-.18-4.404 1.299-10.376 6.803-18.082 5.225-7.314 10.9-13.138 16.681-17.759 19.916-15.922 41.441-17.832 50.685-16.511ZM316.243 324.153c-2.048 5.23-6.637 9.8-10.269 12.362-17.626 5.388-36.998 16.296-52.559 29.142-11.039 9.113-20.78 19.711-26.472 30.664-5.318 2.491-10.568 4.033-15.006 3.359-3.893-.591-9.555-3.294-13.92-16.39-.914-2.741-.77-6.624 1.499-11.97 3.971-9.354 13.346-20.491 26.103-31.335 7.682-6.529 16.329-12.731 25.216-18.138 13.654-8.306 27.492-14.503 38.95-17.275 5.734-1.388 10.494-1.824 14.149-1.467 3.628.355 5.601 1.418 6.684 2.502 4.107 4.106 5.799 7.642 6.403 10.424.601 2.772.265 5.458-.778 8.122ZM345.443 368.969c-1.258 3.349-4.664 6.494-8.679 9.208-.912.248-1.843.531-2.793.848-5.814 1.938-12.562 6.216-19.044 11.092-6.674 5.02-13.769 11.218-20.382 17.652-7.544 7.339-14.676 15.196-19.938 22.205-5.8 2.815-12.977 5.353-19.332 4.993-3.267-.185-6.115-1.126-8.579-3.082-2.496-1.982-5.212-5.497-7.332-11.859-1.158-3.474-.859-8.017 1.765-13.825 3.888-8.609 12.158-18.286 23.162-27.37 14.461-11.938 32.376-21.815 47.76-26.303 6.818-1.989 12.736-2.8 17.417-2.507 4.666.292 7.435 1.618 9.039 3.221 4.377 4.378 6.267 7.797 7.008 10.207.693 2.255.503 3.992-.072 5.52ZM324.336 437.734l-6.042 6.042 8.709 8.703c-11.928 3.6-21.065 5.753-28.039 6.847-9.625 1.51-14.025.81-15.763.115-.404-.162-.583-.29-.643-.344-.028-.046-.134-.253-.231-.773-.137-.73-.196-1.729-.174-3.216.004-.324.022-.904.043-1.576.034-1.077.074-2.392.08-3.273.003-.003.009-.024.02-.062.056-.193.243-.837.837-2.033.849-1.707 2.2-3.89 4.067-6.482 4.584-6.361 11.532-14.153 19.257-21.669 6.209-6.04 12.756-11.743 18.74-16.244 6.177-4.647 11.104-7.513 14.176-8.537 1.062-.355 1.999-.619 2.82-.81 2.185-.509 3.316-.449 3.759-.383.294.609.65 1.865.854 4.163.199 2.248.205 4.787.205 7.807 0 .471-.303 2.1-1.828 5.101-1.415 2.788-3.484 5.993-5.953 9.35-4.932 6.708-10.925 13.305-14.894 17.274Z"
        fill="#fff" />
    <path fill-rule="evenodd" clip-rule="evenodd"
        d="M493.251 430.42c23.842-23.842 23.91-62.453.205-86.382l-.885-.884c-5.923-26.751-22.303-63.224-46.635-98.005-27.348-39.093-66.849-79.099-117.74-101.716l-4.254-1.89-6.663-.393c-8.035-.475-17.748-1.048-27.835-1.349-1.332-1.363-2.983-2.976-4.93-4.738-5.215-4.718-12.91-10.825-22.663-16.013-15.976-8.498-38.602-14.94-63.951-7.536-15.93-15.6916-35.898-34.946-54.116-51.6589-11.567-10.6124-22.743-20.49-31.858-27.827-4.065-3.2717-8.096-6.3444-11.792-8.8237-1.0338-1.6289-2.25-3.1524-3.6357-4.5381L85.877 8.04504C80.9113 3.07935 74.1763.289551 67.1536.289551h-3.2289c-7.0227 0-13.7578 2.789779-18.7235 7.755479L7.9391 45.307C2.97347 50.2726.183594 57.0076.183594 64.0304v3.2295c0 7.0227 2.789786 13.7577 7.755496 18.7234L18.5629 96.6071c1.3829 1.3829 2.903 2.597 4.5282 3.6289 2.4801 3.698 5.5544 7.732 8.828 11.799 7.337 9.114 17.2146 20.29 27.827 31.858 16.7105 18.214 35.9617 38.179 51.6519 54.108-8.972 30.606 2.32 56.951 12.818 72.806 4.6 6.946 9.35 12.432 12.971 16.211 1.826 1.906 3.407 3.422 4.598 4.517.369.34.703.64.996.901-1.079 1.386-2.141 2.81-3.186 4.273-8.657 12.121-13.708 25.421-13.139 39.336.574 14.034 6.726 25.305 14.163 33.468 6.737 7.395 14.997 12.837 23.131 16.654.362 2.615.964 5.265 1.851 7.927 7.024 21.071 20.773 36.263 41.204 39.365.379.057.756.11 1.131.158 3.747 9.949 9.435 18.612 17.512 25.025 7.754 6.157 16.287 9.108 24.305 10.111 1.035 3.397 2.715 7.173 5.472 10.848 4.069 5.425 9.428 9.22 15.286 11.563 10.516 4.206 22.486 3.681 33.745 1.915 8.727-1.369 19.144-3.859 31.604-7.588l7.866 7.866c23.91 23.91 62.677 23.91 86.588 0l62.937-62.937Zm-216.397 44.882c-3.265-1.306-5.968-3.292-7.963-5.952-.321-.427-.614-.859-.882-1.295-1.367-2.219-2.088-4.516-2.476-6.583-.453-2.416-.492-4.761-.465-6.617.018-1.188.047-1.933.072-2.585l.001-.013c.014-.355.027-.693.036-1.052-3.496.681-7.166 1.028-10.87.818-.124-.007-.248-.015-.372-.024-.862-.057-1.729-.145-2.598-.267-.07-.01-.141-.02-.211-.031-1.011-.148-2.025-.342-3.037-.587-4.131-1-8.231-2.844-12.018-5.85-5.107-4.055-9.144-9.828-12.025-17.343-.31-.811-.608-1.642-.892-2.494-1.028-3.085-1.501-6.203-1.523-9.304-3.18.65-6.54.964-9.968.706-.499-.038-1.001-.088-1.503-.15-.262-.033-.525-.069-.788-.109l-.002-.001c-.632-.095-1.257-.211-1.876-.345-11.264-2.448-20.279-11.31-25.687-27.532-1.57-4.711-1.73-9.534-.947-14.249-9.451-2.78-20.094-8.182-27.613-16.435-5.347-5.869-9.346-13.465-9.722-22.661-.374-9.156 2.888-18.792 9.971-28.708 3.303-4.624 6.785-8.777 10.387-12.498.792-.818 1.59-1.616 2.393-2.393l-11.626-11.626-.158-.136c-.097-.085-.206-.181-.328-.289-.231-.204-.505-.451-.817-.738-.955-.878-2.275-2.141-3.825-3.759-3.09-3.225-7.151-7.917-11.062-13.824-10.118-15.281-19.821-39.825-7.287-67.678-16.642-16.742-39.4971-40.271-58.8387-61.354-10.5304-11.478-20.1166-22.336-27.1077-31.021-3.481-4.3247-6.4437-8.2643-8.578-11.5577-.6017-.9286-1.1733-1.8601-1.6888-2.7784-1.62-.4141-3.1148-1.2569-4.3172-2.4594L20.0187 73.9037c-1.762-1.762-2.7519-4.1518-2.7519-6.6438v-3.2295c0-2.492.9899-4.8818 2.7519-6.6438l37.2622-37.262c1.762-1.762 4.1518-2.7519 6.6438-2.7519h3.2289c.5382 0 1.0718.0462 1.5952.1363 1.9009.327 3.6692 1.234 5.0513 2.6161l10.6214 10.6213c1.204 1.2041 2.0476 2.7013 2.461 4.3239.9178.5152 1.8487 1.0865 2.7767 1.6878 3.2934 2.1343 7.233 5.097 11.5578 8.578 8.685 6.9911 19.543 16.5772 31.021 27.1076 21.083 19.3413 44.612 42.1963 61.354 58.8373 13.288-5.974 25.858-6.893 37.029-5.109.621.099 1.237.206 1.849.321 7.956 1.5 15.162 4.342 21.362 7.64 8.18 4.351 14.732 9.534 19.223 13.598 2.257 2.042 4.024 3.828 5.247 5.129.612.65 1.09 1.182 1.427 1.565.112.128.209.239.289.333l1.962 1.962c12.226.181 24.42.9 34.424 1.491l.003.001 1.886.111 1.547.091h.002l1.419.63c47.173 20.965 84.466 58.426 110.68 95.898 25.085 35.857 40.694 72.697 44.896 96.634l4.485 4.485c17.091 17.252 17.041 45.09-.148 62.28l-62.937 62.936c-9.518 9.518-22.301 13.781-34.744 12.789-1.643-.131-3.281-.353-4.905-.668-8.347-1.616-16.318-5.656-22.783-12.121l-15.166-15.166c-16.592 5.36-29.29 8.564-39.028 10.092-6.11.958-11.449 1.326-16.055.974-1.296-.098-2.534-.254-3.715-.47-1.793-.327-3.454-.792-4.987-1.405Z"
        fill="#fff" />
    <path
        d="M435.215 437.015c.045 1.2.057 2.227.053 3.073l-29.111 29.11c-10.568 10.568-27.702 10.568-38.269 0l-25.595-25.591c3.46-3.832 7.277-8.371 10.7-13.026 2.776-3.776 5.428-7.81 7.422-11.735 1.885-3.713 3.68-8.272 3.68-12.837v-.182c0-2.807 0-6.06-.273-9.134-.274-3.089-.873-6.744-2.491-10.091-.86-1.778-2.017-3.479-3.519-4.946 1.442-2 2.701-4.224 3.623-6.679 1.854-4.935 2.252-10.549.409-16.546-1.795-5.841-5.565-11.576-11.258-17.268-5.348-5.348-12.431-7.636-19.584-8.16.413-.851.797-1.725 1.148-2.62 2.062-5.265 2.993-11.394 1.566-17.973-1.425-6.569-5.054-12.919-11.018-18.883-4.709-4.709-10.884-6.816-17.103-7.424-6.19-.605-12.976.207-19.828 1.865-8.019 1.94-16.649 5.169-25.351 9.291.517-17.227-10.931-30.115-23.234-31.873-12.34-1.763-35.438.502-57.586 15.521l-13.389-13.389-.291-.241-.008-.007-.008-.007-.011-.009-.176-.152c-.17-.148-.443-.389-.801-.718-.718-.66-1.777-1.672-3.051-3.002-2.559-2.671-5.931-6.569-9.154-11.437-8.976-13.556-16.133-33.344-3.673-55.772l3.129-5.632-4.556-4.556c-16.731-16.732-41.814-42.443-62.6817-65.189-10.4485-11.389-19.7432-21.9292-26.3883-30.1846-3.3371-4.1457-5.8813-7.5618-7.5495-10.136-.2345-.3619-.443-.694-.6277-.9972 10.203 6.9822 23.0596 16.1269 36.9209 26.8168 32.8433 25.328 70.5383 58.737 92.3653 92.205 29.144 44.688 73.733 63.18 115.606 80.546l.848.352c42.772 17.74 82.665 34.51 108.736 74.428 17.281 26.459 24.806 49.101 28.046 64.903 1.622 7.911 2.175 14.133 2.333 18.286Z"
        fill="#00F148" />
    <path
        d="M245.809 149.215c4.704 2.502 8.799 5.381 12.128 8.062-7.969.583-15.51 1.654-21.881 3.484-5.813 1.669-11.666 4.241-15.845 8.541-4.634 4.766-6.609 11.062-5.201 18.104 3.835 19.177 21.985 39.809 46.839 53.064 24.219 12.916 56.085 19.609 91.098 11.376l116.252 116.251c10.463 10.576 10.428 27.632-.105 38.164l-17.931 17.932c-.386-2.729-.891-5.7-1.546-8.896-3.651-17.804-11.966-42.468-30.478-70.813-29.159-44.645-73.733-63.132-115.588-80.49l-.906-.375c-42.769-17.74-82.647-34.518-108.69-74.451-23.471-35.989-63.093-70.837-96.2419-96.4009-16.6764-12.8606-31.9142-23.5217-42.9867-30.9706-3.4204-2.301-6.4459-4.2972-8.9963-5.9587l19.8118-19.8117 4.5483 4.5483v8.9432h7.5754c.5787.2773 1.4676.7759 2.7032 1.5766 2.5742 1.6682 5.9903 4.2123 10.1361 7.5494 8.2554 6.6451 18.7961 15.9399 30.1851 26.3883 22.746 20.8681 48.457 45.9511 65.189 62.6821l4.556 4.556 5.632-3.129c19.391-10.773 36.666-6.881 49.742.074Z"
        fill="#05050F" fill-opacity=".4" />
</svg>