<svg width="71" height="71" viewBox="0 0 71 71" fill="none" xmlns="http://www.w3.org/2000/svg">
    <path
        d="M55.7512 51.5664L55.7514 51.5665L55.7688 51.584L55.7703 51.5855C57.9648 53.8006 57.9584 57.3751 55.7513 59.5823L48.383 66.9505C46.1695 69.1641 42.5806 69.1641 40.3671 66.9506L38.807 65.3905C36.9922 65.9668 35.5701 66.3216 34.4531 66.4969C33.2071 66.6923 32.1379 66.7001 31.2919 66.3617C30.8337 66.1785 30.4395 65.893 30.1452 65.5007C29.8584 65.1183 29.7248 64.7124 29.6607 64.3705C29.6119 64.11 29.5988 63.8608 29.5971 63.6552C29.34 63.6792 29.0763 63.6864 28.8092 63.6712C28.006 63.6256 27.1527 63.3764 26.3919 62.7723C25.6369 62.1728 25.0806 61.3096 24.7163 60.2165C24.6415 59.9922 24.5888 59.767 24.5557 59.5422C24.2169 59.5737 23.8629 59.5706 23.5018 59.5157C21.8379 59.2631 20.5821 58.0351 19.8756 55.9157C19.7111 55.4221 19.6621 54.9243 19.695 54.4395C18.6337 54.0689 17.4871 53.4355 16.6367 52.5021C15.9495 51.7478 15.4183 50.751 15.3685 49.5328C15.319 48.3215 15.7533 47.0861 16.6286 45.8607C17.0095 45.3275 17.4106 44.845 17.8259 44.4094L16.8296 43.4131L16.8247 43.4088L16.8238 43.408C16.7877 43.3766 16.739 43.3334 16.6796 43.2788C16.5609 43.1697 16.3987 43.0144 16.2092 42.8165C15.8319 42.4227 15.3363 41.8502 14.8583 41.1282C13.663 39.3231 12.4746 36.391 13.8299 33.0422C11.9026 31.0983 9.34478 28.4598 7.16507 26.0838C5.92983 24.7374 4.79901 23.4569 3.9704 22.4275C3.55864 21.916 3.19954 21.4394 2.93604 21.0328C2.89684 20.9724 2.85818 20.911 2.82065 20.8492C2.62735 20.7695 2.44965 20.652 2.29893 20.5013L1.05515 19.2575C0.755092 18.9574 0.586518 18.5505 0.586518 18.1261L1.08513 18.1261L0.586519 18.1261L0.586519 17.748L55.7512 51.5664ZM55.7512 51.5664L55.3539 51.1691C54.8071 48.2739 52.9551 43.9742 50.0436 39.8122C46.9414 35.3778 42.5107 30.9176 36.8791 28.4148L36.7131 28.341L36.63 28.3041M55.7512 51.5664L36.63 28.3041M36.63 28.3041L36.5394 28.2988M36.63 28.3041L36.5394 28.2988M36.5394 28.2988L36.3581 28.2881L36.358 28.2881M36.5394 28.2988L36.358 28.2881M36.358 28.2881L36.1373 28.2751L36.358 28.2881Z"
        stroke="white" />
    <path
        d="M25.2174 31.996C24.8152 29.9849 28.1641 29.5748 31.6588 29.5952C33.2854 29.6047 34.9437 29.7075 36.2699 29.7855C46.8803 34.501 53.217 46.7324 53.9538 51.8903L40.6909 38.6274C32.5858 40.8378 25.9542 35.6802 25.2174 31.996Z"
        fill="white" />
    <path
        d="M40.6908 57.785C40.6908 58.9639 38.7257 61.2237 37.7431 62.2063L39.2172 63.6795C30.3753 66.6268 31.1119 64.4164 31.112 62.9428C31.112 62.5926 31.4033 62.0343 31.8771 61.3768C30.3941 62.1444 27.3182 63.2789 26.1393 59.7422C25.8984 59.0195 26.0119 58.2181 26.3832 57.3958C24.9002 58.1634 22.4775 58.9781 21.2986 55.4414C21.088 54.8095 21.1805 54.0913 21.5024 53.333C19.3022 53.0977 14.9019 50.8587 17.8492 46.7325C18.5148 45.8007 19.2429 45.0518 19.9913 44.4535C22.557 42.4023 25.3601 42.1214 26.6911 42.3115C27.8707 42.4801 29.4769 44.406 27.9113 47.0774C31.2185 45.0654 34.7809 43.967 36.1372 45.3233C38.495 47.6812 36.4059 49.8669 35.3177 50.5638C37.0501 50.0584 38.5746 50.0727 39.4022 50.9002C41.76 53.2581 39.9881 54.7576 38.8999 55.4545C40.6908 55.0374 40.6908 56.4112 40.6908 57.785Z"
        fill="white" />
    <path
        d="M3.84942 19.4699C3.84942 20.6488 11.7089 28.8031 15.6386 32.7328C13.9259 35.8157 14.9502 38.5502 16.1089 40.3001C16.9442 41.5616 17.8492 42.3114 17.8492 42.3114L19.9913 44.4535C22.557 42.4023 25.3601 42.1214 26.6911 42.3115C27.8707 42.4801 29.4769 44.406 27.9113 47.0774C31.2185 45.0654 34.7809 43.967 36.1372 45.3233C38.495 47.6812 36.4059 49.8669 35.3177 50.5638C37.0501 50.0584 38.5746 50.0727 39.4022 50.9002C41.76 53.2581 39.9881 54.7576 38.8999 55.4545C40.6908 55.0374 40.6908 56.4112 40.6908 57.785C40.6908 58.9639 38.7257 61.2237 37.7431 62.2063L39.2172 63.6795L41.4277 65.8899C43.0555 67.5176 45.6946 67.5176 47.3223 65.8899L51.0066 62.2056C51.0066 62.2056 51.4883 57.5449 47.2978 51.1288C40.8071 41.1909 27.4182 42.8869 20.9342 32.9447C15.6309 24.813 2.83064 16.9625 2.83064 16.9625L2.11579 17.6773C2.09703 17.6961 2.0865 17.7215 2.0865 17.748L2.0865 18.1261C2.0865 18.1526 2.09703 18.1781 2.11579 18.1968L3.35956 19.4406C3.37832 19.4594 3.40375 19.4699 3.43027 19.4699L3.84942 19.4699Z"
        fill="#00F148" />
    <path
        d="M31.1121 29.0485C31.1121 29.0485 26.8385 23.8907 21.5334 26.8381C17.6036 22.9083 9.44936 15.0489 8.27043 15.0489L8.27043 14.6291C8.27043 14.6025 8.2599 14.5771 8.24115 14.5584L6.99766 13.3149C6.97891 13.2961 6.95347 13.2856 6.92695 13.2856L6.54893 13.2856C6.52241 13.2856 6.49697 13.2961 6.47822 13.3149L2.83064 16.9625C2.83064 16.9625 15.6309 24.813 20.9342 32.9447C27.4182 42.8869 40.8071 41.1909 47.2978 51.1288C51.4883 57.5449 51.0066 62.2056 51.0066 62.2056L54.6906 58.5216C56.3136 56.8986 56.3183 54.27 54.7047 52.6411L53.9538 51.8903L40.6909 38.6274C32.5858 40.8378 25.9542 35.6802 25.2174 31.996C24.8152 29.9849 28.1641 29.5748 31.6588 29.5952L31.1121 29.0485Z"
        fill="#05050F" fill-opacity="0.4" />
    <path
        d="M41.4277 65.8899L42.1348 65.1828L42.1348 65.1828L41.4277 65.8899ZM31.1121 29.0485L30.3421 29.6866L30.3719 29.7226L30.405 29.7556L31.1121 29.0485ZM17.8492 42.3114L18.5563 41.6043L18.5233 41.5712L18.4872 41.5414L17.8492 42.3114ZM21.5334 26.8381L20.8263 27.5452L21.3596 28.0785L22.019 27.7122L21.5334 26.8381ZM15.6386 32.7328L16.5128 33.2185L16.8791 32.5591L16.3457 32.0257L15.6386 32.7328ZM3.84942 19.4699L4.84942 19.4699L4.84942 18.4699L3.84942 18.4699L3.84942 19.4699ZM8.27043 15.0489L7.27043 15.0489L7.27043 16.0489L8.27043 16.0489L8.27043 15.0489ZM16.1089 40.3001L15.2751 40.8522L16.1089 40.3001ZM20.9342 32.9447L21.7718 32.3984L20.9342 32.9447ZM47.2978 51.1288L48.135 50.582L47.2978 51.1288ZM3.43027 19.4699L3.43028 18.4699L3.43027 18.4699L3.43027 19.4699ZM8.27043 14.6291L9.27043 14.6291L9.27043 14.6291L8.27043 14.6291ZM6.92695 13.2856L6.92695 14.2856L6.92695 14.2856L6.92695 13.2856ZM2.0865 18.1261L1.0865 18.1261L1.0865 18.1261L2.0865 18.1261ZM6.54893 13.2856L6.54893 12.2856L6.54893 12.2856L6.54893 13.2856ZM2.0865 17.748L3.0865 17.748L3.0865 17.748L2.0865 17.748ZM36.2699 29.7855L36.676 28.8717L36.51 28.7979L36.3286 28.7872L36.2699 29.7855ZM25.2174 31.996L26.198 31.7999L26.198 31.7999L25.2174 31.996ZM40.6909 38.6274L41.398 37.9203L40.9876 37.5099L40.4278 37.6626L40.6909 38.6274ZM37.7431 62.2063L37.036 61.4991L36.3287 62.2065L37.0363 62.9136L37.7431 62.2063ZM39.2172 63.6795L39.9244 62.9723L39.9241 62.9721L39.2172 63.6795ZM31.112 62.9428L30.112 62.9427L30.112 62.9427L31.112 62.9428ZM38.4803 55.5745L38.1641 54.6258L38.164 54.6258L38.4803 55.5745ZM31.8771 61.3768L32.6884 61.9614L32.6884 61.9614L31.8771 61.3768ZM26.1393 59.7422L25.1906 60.0584L25.1906 60.0584L26.1393 59.7422ZM26.3832 57.3958L27.2946 57.8074L27.2946 57.8074L26.3832 57.3958ZM21.2986 55.4414L20.3499 55.7576L20.3499 55.7576L21.2986 55.4414ZM17.8492 46.7325L17.0355 46.1513L17.0355 46.1513L17.8492 46.7325ZM26.6911 42.3115L26.5497 43.3015L26.5497 43.3015L26.6911 42.3115ZM24.8312 49.2934L24.1835 48.5314L24.8312 49.2934ZM29.3697 53.8319L28.7331 53.0607L29.3697 53.8319ZM34.2456 58.7078L33.5483 57.991L34.2456 58.7078ZM54.7047 52.6411L55.4151 51.9374L54.7047 52.6411ZM31.1121 29.0485C31.8821 28.4105 31.8818 28.4102 31.8815 28.4098C31.8814 28.4096 31.8811 28.4092 31.8808 28.4089C31.8803 28.4083 31.8798 28.4077 31.8791 28.4069C31.8778 28.4054 31.8763 28.4035 31.8745 28.4014C31.8709 28.3971 31.8662 28.3916 31.8605 28.3849C31.8491 28.3714 31.8334 28.3533 31.8137 28.3309C31.7742 28.286 31.7183 28.2238 31.6466 28.1476C31.5034 27.9954 31.2966 27.7862 31.0324 27.5472C30.5065 27.0714 29.7396 26.4646 28.7818 25.9552C26.8496 24.9274 24.0827 24.2778 21.0477 25.9639L22.019 27.7122C24.2892 26.451 26.3117 26.9066 27.8426 27.7209C28.6163 28.1325 29.2493 28.631 29.6906 29.0302C29.9099 29.2287 30.0784 29.3994 30.1897 29.5177C30.2452 29.5768 30.2862 29.6226 30.312 29.6518C30.3248 29.6664 30.3338 29.6769 30.3389 29.6828C30.3414 29.6858 30.343 29.6876 30.3435 29.6882C30.3438 29.6886 30.3438 29.6886 30.3436 29.6883C30.3434 29.6882 30.3433 29.688 30.343 29.6877C30.3429 29.6875 30.3427 29.6872 30.3426 29.6872C30.3424 29.6869 30.3421 29.6866 31.1121 29.0485ZM16.3457 32.0257C14.3869 30.0669 11.4504 27.0568 9.00724 24.3938C7.784 23.0604 6.69582 21.8264 5.91785 20.8599C5.52716 20.3746 5.2293 19.9746 5.034 19.6733C4.9357 19.5216 4.8763 19.4145 4.84487 19.3472C4.79956 19.25 4.84942 19.3149 4.84942 19.4699L2.84942 19.4699C2.84942 19.7723 2.96068 20.039 3.03242 20.1927C3.11804 20.3763 3.23133 20.5691 3.35561 20.7609C3.60548 21.1465 3.95234 21.6077 4.35988 22.114C5.17835 23.1308 6.30065 24.402 7.53348 25.7458C10.0025 28.4371 12.9606 31.469 14.9315 33.4399L16.3457 32.0257ZM22.2405 26.1309C20.2696 24.16 17.2376 21.202 14.5464 18.7329C13.2026 17.5001 11.9314 16.3778 10.9145 15.5593C10.4083 15.1518 9.94703 14.8049 9.56146 14.5551C9.36967 14.4308 9.17681 14.3175 8.99328 14.2319C8.83951 14.1601 8.57282 14.0489 8.27043 14.0489L8.27043 16.0489C8.11541 16.0489 8.05058 15.999 8.1477 16.0443C8.21505 16.0758 8.32211 16.1352 8.47379 16.2335C8.77516 16.4288 9.1751 16.7266 9.66046 17.1173C10.627 17.8953 11.861 18.9835 13.1943 20.2067C15.8573 22.6498 18.8674 25.5863 20.8263 27.5452L22.2405 26.1309ZM17.8492 42.3114C18.4872 41.5414 18.4874 41.5415 18.4875 41.5416C18.4875 41.5416 18.4877 41.5417 18.4878 41.5418C18.4879 41.5419 18.4881 41.5421 18.4882 41.5422C18.4885 41.5424 18.4887 41.5426 18.4888 41.5427C18.4891 41.543 18.4892 41.543 18.4891 41.543C18.4889 41.5428 18.4879 41.5419 18.486 41.5403C18.4823 41.5372 18.4753 41.5312 18.4654 41.5225C18.4454 41.5052 18.4136 41.477 18.3716 41.4384C18.2875 41.3611 18.1636 41.2427 18.0144 41.087C17.7148 40.7743 17.3201 40.3179 16.9427 39.748L15.2751 40.8522C15.733 41.5437 16.2085 42.093 16.5702 42.4706C16.7517 42.66 16.9062 42.808 17.018 42.9107C17.0739 42.9621 17.1192 43.0023 17.1521 43.0309C17.1685 43.0452 17.1818 43.0566 17.1917 43.0651C17.1967 43.0693 17.2008 43.0728 17.2041 43.0755C17.2057 43.0769 17.2071 43.078 17.2083 43.079C17.2089 43.0795 17.2095 43.08 17.21 43.0804C17.2102 43.0806 17.2104 43.0808 17.2106 43.081C17.2108 43.081 17.2109 43.0812 17.211 43.0812C17.2111 43.0813 17.2113 43.0815 17.8492 42.3114ZM16.9427 39.748C15.8918 38.1609 15.054 35.8442 16.5128 33.2185L14.7644 32.2472C12.7978 35.7872 14.0086 38.9394 15.2751 40.8522L16.9427 39.748ZM1.0865 17.748L1.0865 18.1261L3.0865 18.1261L3.0865 17.748L1.0865 17.748ZM6.54893 14.2856L6.92695 14.2856L6.92695 12.2856L6.54893 12.2856L6.54893 14.2856ZM6.29056 14.022L7.53404 15.2655L8.94825 13.8512L7.70477 12.6078L6.29056 14.022ZM7.27043 14.6291L7.27043 15.0489L9.27043 15.0489L9.27043 14.6291L7.27043 14.6291ZM1.40868 18.9039L2.65246 20.1477L4.06667 18.7335L2.82289 17.4897L1.40868 18.9039ZM3.43027 20.4699L3.84942 20.4699L3.84942 18.4699L3.43028 18.4699L3.43027 20.4699ZM5.77111 12.6078L2.12353 16.2553L3.53775 17.6696L7.18533 14.022L5.77111 12.6078ZM2.12353 16.2553L1.40868 16.9702L2.82289 18.3844L3.53775 17.6696L2.12353 16.2553ZM53.9835 57.8145L50.2994 61.4985L51.7137 62.9127L55.3977 59.2287L53.9835 57.8145ZM50.2994 61.4985L46.6152 65.1828L48.0294 66.597L51.7137 62.9127L50.2994 61.4985ZM2.83064 16.9625C2.30783 17.8149 2.30776 17.8149 2.30774 17.8148C2.3078 17.8149 2.30783 17.8149 2.30795 17.815C2.30818 17.8151 2.30861 17.8154 2.30923 17.8158C2.31047 17.8165 2.31249 17.8178 2.31526 17.8195C2.3208 17.8229 2.32939 17.8282 2.34094 17.8353C2.36404 17.8497 2.39899 17.8714 2.44517 17.9003C2.53755 17.9581 2.67484 18.0446 2.8521 18.158C3.20667 18.3849 3.72092 18.7191 4.35536 19.1459C5.62483 19.9999 7.37239 21.2226 9.28299 22.696C13.1281 25.6614 17.5412 29.5727 20.0966 33.491L21.7718 32.3984C19.0239 28.185 14.3852 24.1052 10.5044 21.1123C8.55199 19.6066 6.76804 18.3585 5.47172 17.4864C4.82327 17.0502 4.29608 16.7075 3.92991 16.4733C3.74681 16.3562 3.60392 16.2661 3.5062 16.2049C3.45734 16.1743 3.41976 16.151 3.3941 16.1351C3.38127 16.1271 3.37141 16.1211 3.36461 16.1169C3.36121 16.1148 3.35858 16.1132 3.35671 16.112C3.35578 16.1114 3.35504 16.111 3.3545 16.1106C3.35423 16.1105 3.35397 16.1103 3.35383 16.1102C3.35362 16.1101 3.35345 16.11 2.83064 16.9625ZM20.0966 33.491C23.5317 38.7581 28.7995 40.9169 33.7304 42.9621C38.7378 45.039 43.4083 47.0023 46.4605 51.6756L48.135 50.582C44.6966 45.3174 39.4273 43.1598 34.4966 41.1147C29.4895 39.0378 24.8208 37.0735 21.7718 32.3984L20.0966 33.491ZM46.4605 51.6756C48.4837 54.7733 49.3646 57.4242 49.744 59.2741C49.9339 60.2004 49.9987 60.9287 50.0171 61.4149C50.0263 61.6581 50.0239 61.8407 50.0197 61.9572C50.0176 62.0155 50.0151 62.0572 50.0134 62.0817C50.0125 62.094 50.0119 62.1019 50.0116 62.1055C50.0114 62.1072 50.0113 62.1079 50.0114 62.1075C50.0114 62.1073 50.0115 62.1068 50.0115 62.106C50.0116 62.1056 50.0116 62.1052 50.0117 62.1046C50.0117 62.1044 50.0117 62.1039 50.0118 62.1038C50.0118 62.1033 50.0119 62.1028 51.0066 62.2056C52.0013 62.3085 52.0013 62.3079 52.0014 62.3074C52.0014 62.3072 52.0014 62.3066 52.0015 62.3062C52.0016 62.3054 52.0017 62.3045 52.0017 62.3036C52.0019 62.3017 52.0022 62.2995 52.0024 62.297C52.0029 62.292 52.0034 62.2859 52.0041 62.2787C52.0053 62.2642 52.0068 62.2452 52.0085 62.2217C52.0118 62.1748 52.0155 62.1102 52.0184 62.0285C52.0243 61.865 52.0268 61.6334 52.0156 61.3394C51.9934 60.7512 51.9167 59.9134 51.7032 58.8724C51.2758 56.788 50.3024 53.9004 48.135 50.582L46.4605 51.6756ZM2.65246 20.1477C2.85875 20.354 3.13853 20.4699 3.43027 20.4699L3.43027 18.4699C3.66897 18.4699 3.89789 18.5647 4.06667 18.7335L2.65246 20.1477ZM7.53404 15.2655C7.36526 15.0967 7.27043 14.8678 7.27043 14.6291L9.27043 14.6291C9.27043 14.3373 9.15454 14.0575 8.94825 13.8512L7.53404 15.2655ZM6.92695 14.2856C6.68826 14.2856 6.45934 14.1908 6.29056 14.022L7.70477 12.6078C7.49848 12.4015 7.21869 12.2856 6.92695 12.2856L6.92695 14.2856ZM1.0865 18.1261C1.0865 18.4179 1.20239 18.6976 1.40868 18.9039L2.82289 17.4897C2.99167 17.6585 3.0865 17.8874 3.0865 18.1261L1.0865 18.1261ZM6.54893 12.2856C6.25719 12.2856 5.9774 12.4015 5.77111 12.6078L7.18533 14.022C7.01655 14.1908 6.78763 14.2856 6.54893 14.2856L6.54893 12.2856ZM3.0865 17.748C3.0865 17.9867 2.99167 18.2156 2.82289 18.3844L1.40868 16.9702C1.20239 17.1765 1.0865 17.4563 1.0865 17.748L3.0865 17.748ZM24.2368 32.1922C24.6858 34.4373 26.8107 36.8527 29.7205 38.4045C32.6863 39.9863 36.6319 40.7709 40.954 39.5921L40.4278 37.6626C36.6448 38.6943 33.222 38.0053 30.6616 36.6398C28.0451 35.2444 26.4858 33.239 26.198 31.7999L24.2368 32.1922ZM39.9838 39.3345L53.2467 52.5974L54.6609 51.1831L41.398 37.9203L39.9838 39.3345ZM54.9437 51.7488C54.5458 48.9632 52.6909 44.4687 49.6338 40.0988C46.5649 35.7119 42.1988 31.3261 36.676 28.8717L35.8638 30.6993C40.9514 32.9604 45.0589 37.0481 47.995 41.2452C50.9431 45.4594 52.6249 49.6595 52.9638 52.0317L54.9437 51.7488ZM38.4503 62.9134C38.9681 62.3955 39.7403 61.5467 40.391 60.6617C40.7161 60.2197 41.0266 59.7474 41.26 59.2878C41.4807 58.8532 41.6908 58.3194 41.6908 57.785L39.6908 57.785C39.6908 57.8401 39.6552 58.0308 39.4767 58.3822C39.311 58.7086 39.0688 59.0837 38.7798 59.4769C38.2024 60.2621 37.5008 61.0344 37.036 61.4991L38.4503 62.9134ZM39.9241 62.9721L38.45 61.4989L37.0363 62.9136L38.5104 64.3868L39.9241 62.9721ZM30.112 62.9427C30.112 63.1497 30.1019 63.2153 30.0977 63.5037C30.0945 63.721 30.0991 63.9955 30.1521 64.2784C30.2064 64.5678 30.3166 64.8959 30.5452 65.2006C30.7787 65.512 31.0952 65.7446 31.4775 65.8975C32.1952 66.1845 33.1537 66.1946 34.3756 66.0029C35.6281 65.8064 37.2992 65.3729 39.5335 64.6281L38.901 62.7308C36.7144 63.4597 35.1618 63.8551 34.0656 64.0271C32.9388 64.2038 32.4236 64.1218 32.2202 64.0405C32.1419 64.0092 32.136 63.9885 32.1451 64.0005C32.1492 64.006 32.1327 63.9887 32.1179 63.9097C32.1018 63.8242 32.0949 63.7073 32.0975 63.5332C32.099 63.4301 32.112 63.1043 32.112 62.9429L30.112 62.9427ZM31.0657 60.7922C30.8106 61.1463 30.5862 61.4986 30.4215 61.8298C30.2698 62.1348 30.112 62.5315 30.112 62.9427L32.112 62.9429C32.112 63.0039 32.0999 62.9463 32.2123 62.7203C32.3117 62.5204 32.4698 62.2648 32.6884 61.9614L31.0657 60.7922ZM31.4174 60.4887C30.7083 60.8557 29.771 61.2217 28.9508 61.1752C28.5683 61.1535 28.2349 61.0434 27.9465 60.8144C27.6542 60.5824 27.3363 60.1708 27.088 59.4259L25.1906 60.0584C25.5318 61.0819 26.0404 61.8548 26.7028 62.3807C27.369 62.9097 28.1183 63.1312 28.8375 63.172C30.2207 63.2505 31.5628 62.6655 32.3367 62.2649L31.4174 60.4887ZM27.088 59.4259C26.9524 59.0193 26.9875 58.4874 27.2946 57.8074L25.4719 56.9843C25.0363 57.9487 24.8444 59.0198 25.1906 60.0584L27.088 59.4259ZM35.5977 51.5237C36.396 51.2909 37.0888 51.1959 37.6368 51.2302C38.1832 51.2644 38.5073 51.4196 38.6951 51.6073L40.1093 50.1931C39.4695 49.5534 38.6176 49.2876 37.7617 49.2341C36.9074 49.1807 35.9718 49.3313 35.0377 49.6038L35.5977 51.5237ZM41.6908 57.785C41.6908 57.4516 41.6915 57.062 41.6589 56.6943C41.6268 56.3326 41.5566 55.9047 41.3672 55.5129C41.1629 55.0904 40.8156 54.7056 40.277 54.5097C39.7745 54.3269 39.2233 54.3524 38.673 54.4806L39.1267 56.4284C39.4719 56.348 39.5923 56.3888 39.5934 56.3892C39.5934 56.3892 39.5931 56.3891 39.5924 56.3888C39.5917 56.3885 39.5907 56.3881 39.5895 56.3875C39.587 56.3863 39.5837 56.3846 39.5801 56.3823C39.5723 56.3774 39.5652 56.3718 39.5596 56.3664C39.548 56.3552 39.5528 56.355 39.5666 56.3834C39.601 56.4546 39.6428 56.6017 39.6667 56.871C39.69 57.1342 39.6908 57.4315 39.6908 57.785L41.6908 57.785ZM38.673 54.4806C38.5088 54.5188 38.3392 54.5674 38.1641 54.6258L38.7965 56.5232C38.9209 56.4817 39.0305 56.4508 39.1267 56.4284L38.673 54.4806ZM38.6951 51.6073C39.2076 52.1199 39.4288 52.5201 39.5156 52.8023C39.5967 53.0663 39.5744 53.2696 39.5072 53.4486C39.3465 53.8764 38.8862 54.2758 38.3606 54.6124L39.4391 56.2966C40.0018 55.9363 40.9716 55.2375 41.3794 54.1519C41.5965 53.5741 41.6431 52.9169 41.4273 52.2148C41.2172 51.5309 40.7757 50.8596 40.1093 50.1931L38.6951 51.6073ZM25.9236 56.5077C25.2041 56.8801 24.4772 57.1352 23.877 57.044C23.4213 56.9748 22.7584 56.6583 22.2473 55.1251L20.3499 55.7576C21.0178 57.7611 22.1557 58.8056 23.5768 59.0214C24.8534 59.2152 26.0794 58.6791 26.8429 58.2839L25.9236 56.5077ZM35.4301 46.0304C35.9108 46.5112 36.109 46.9251 36.1796 47.2508C36.25 47.5753 36.2107 47.8899 36.0886 48.2017C35.828 48.8671 35.2161 49.4413 34.7784 49.7216L35.857 51.4059C36.5075 50.9893 37.4843 50.1223 37.9508 48.9311C38.1923 48.3147 38.3012 47.5971 38.1342 46.8269C37.9674 46.0579 37.5425 45.3144 36.8443 44.6162L35.4301 46.0304ZM22.2473 55.1251C22.1404 54.8043 22.1572 54.3496 22.4229 53.7238L20.5819 52.9422C20.2038 53.8329 20.0356 54.8146 20.3499 55.7576L22.2473 55.1251ZM21.6087 52.3387C20.6885 52.2403 19.2884 51.7005 18.4847 50.8184C18.1041 50.4006 17.8873 49.9417 17.8664 49.4307C17.8453 48.915 18.0185 48.2159 18.6629 47.3137L17.0355 46.1513C16.2062 47.3122 15.8242 48.4403 15.8681 49.5123C15.9121 50.5889 16.3802 51.4782 17.0063 52.1653C18.216 53.4931 20.1162 54.1905 21.3961 54.3273L21.6087 52.3387ZM28.431 47.9317C30.0295 46.9593 31.6496 46.2338 32.991 45.9092C33.6624 45.7468 34.2195 45.6957 34.6475 45.7375C35.0723 45.779 35.3032 45.9036 35.4301 46.0304L36.8443 44.6162C36.293 44.0649 35.57 43.8181 34.842 43.747C34.1173 43.6762 33.3229 43.7712 32.5207 43.9653C30.9151 44.3538 29.1004 45.1835 27.3916 46.2231L28.431 47.9317ZM26.5497 43.3015C26.9099 43.3529 28.3159 44.4092 27.0485 46.5718L28.774 47.583C30.6378 44.4028 28.8316 41.6072 26.8325 41.3216L26.5497 43.3015ZM30.405 29.7556L30.9517 30.3023L32.3659 28.8881L31.8192 28.3414L30.405 29.7556ZM36.3286 28.7872C35.0092 28.7096 33.3229 28.6049 31.6646 28.5952L31.6529 30.5952C33.248 30.6045 34.8781 30.7054 36.2112 30.7838L36.3286 28.7872ZM31.6646 28.5952C29.9069 28.5849 28.0723 28.6788 26.7008 29.0726C26.0202 29.268 25.335 29.5692 24.8457 30.0725C24.3032 30.6306 24.0719 31.3677 24.2368 32.1922L26.198 31.7999C26.1618 31.6188 26.1982 31.5505 26.2798 31.4666C26.4145 31.328 26.7095 31.1509 27.2527 30.9949C28.3288 30.686 29.916 30.585 31.6529 30.5952L31.6646 28.5952ZM18.6629 47.3137C19.2746 46.4574 19.939 45.7756 20.6158 45.2346L19.3669 43.6724C18.5469 44.328 17.7549 45.1441 17.0355 46.1513L18.6629 47.3137ZM20.6158 45.2346C22.9474 43.3705 25.4675 43.1469 26.5497 43.3015L26.8326 41.3216C25.2527 41.0959 22.1666 41.4341 19.3669 43.6724L20.6158 45.2346ZM20.6984 43.7464L18.5563 41.6043L17.1421 43.0185L19.2842 45.1606L20.6984 43.7464ZM22.4229 53.7238C22.8878 52.6287 23.9854 51.3248 25.4788 50.0553L24.1835 48.5314C22.599 49.8783 21.2261 51.4249 20.5819 52.9422L22.4229 53.7238ZM25.4788 50.0553C26.3782 49.2908 27.3905 48.5647 28.431 47.9317L27.3916 46.2231C26.2664 46.9076 25.1677 47.6948 24.1835 48.5314L25.4788 50.0553ZM27.2946 57.8074C27.7498 56.7995 28.7181 55.6666 30.0064 54.6031L28.7331 53.0607C27.3289 54.22 26.1041 55.5843 25.4719 56.9843L27.2946 57.8074ZM30.0064 54.6031C31.6993 53.2054 33.7967 52.0491 35.5977 51.5237L35.0377 49.6038C32.9342 50.2174 30.5995 51.5199 28.7331 53.0607L30.0064 54.6031ZM38.164 54.6258C37.4834 54.8527 36.6933 55.3536 35.9345 55.9244C35.1532 56.5122 34.3225 57.2377 33.5483 57.991L34.9429 59.4245C35.6697 58.7174 36.4362 58.0497 37.1369 57.5227C37.8601 56.9786 38.4368 56.6431 38.7965 56.5232L38.164 54.6258ZM33.5483 57.991C32.592 58.9214 31.6923 59.9227 31.0657 60.7922L32.6884 61.9614C33.225 61.2166 34.0384 60.3045 34.9429 59.4245L33.5483 57.991ZM46.6152 65.1828C45.378 66.42 43.372 66.42 42.1348 65.1828L40.7206 66.597C42.7389 68.6153 46.0111 68.6153 48.0294 66.597L46.6152 65.1828ZM38.5101 64.3866L40.7206 66.597L42.1348 65.1828L39.9244 62.9723L38.5101 64.3866ZM53.9835 53.3341C53.9871 53.3377 53.9907 53.3413 53.9942 53.3449L55.4151 51.9374C55.4093 51.9315 55.4035 51.9257 55.3977 51.9199L53.9835 53.3341ZM53.9942 53.3449C55.2207 54.5829 55.2171 56.5809 53.9835 57.8145L55.3977 59.2287C57.4102 57.2163 57.416 53.9571 55.4151 51.9374L53.9942 53.3449ZM53.2467 52.5974L53.9976 53.3483L55.4118 51.934L54.6609 51.1831L53.2467 52.5974Z"
        fill="black" />
</svg>